<svg xmlns="http://www.w3.org/2000/svg" viewBox="0 0 215 215" enable-background="new 0 0 215 215"><path fill="#C4C3C8" stroke="#C4C3C8" stroke-width="6" stroke-linecap="round" stroke-linejoin="round" stroke-miterlimit="3" d="M194.258 71.541c.499.166 37.888-10.468.701-17.561-2.283-23.096-23.918-40.779-61.743-40.528-49.26.326-69.657 24.598-79.328 43.983l-45.611 33.008s2.213-.553 3.228.83c1.014 1.383 2.508 9.073.941 24.564l-8.871 26.887 75.461 58.166s.183-.236.51-.864l-.177 1.526c46.103-3.319 71.183-6.27 106.59-11.803 3.261-22.825 5.276-43.619 6.438-63.08 2.819-.589 4.719-1.186 4.719-1.186s.192-3.106.407-9.601c1.652-.218 3.25-.625 3.373-2.093.185-2.203.922-34.335.922-34.335s-1.522-.999-3.906-1.569c-.104-3.702-.243-4.959-.243-4.959s-1.324-.098-3.961-.348l-.019-2.114c.803.638.376 1.013.569 1.077z"/><path fill="#BCBEC0" d="M79.036 200.89l-75.461-58.166s7.304-11.396 8.871-26.887.073-23.181-.941-24.564c-1.014-1.383-3.228-.83-3.228-.83l80.495-58.255s9.037 10.4 3.873 84.164c-5.163 73.766-13.609 84.538-13.609 84.538z"/><path fill="#231F20" d="M79.256 202.357l-75.987-59.237-.36-.28.244-.386v-.001c1.248-1.952 2.355-4.055 3.358-6.18.499-1.067.952-2.155 1.402-3.245.425-1.099.853-2.198 1.227-3.317.405-1.108.723-2.245 1.061-3.375.293-1.142.621-2.277.854-3.434.273-1.148.482-2.309.678-3.473.222-1.159.322-2.337.489-3.505.47-4.704.714-9.439.542-14.154-.09-2.354-.267-4.711-.68-7.007-.106-.572-.227-1.141-.38-1.692-.151-.536-.342-1.121-.589-1.482-.502-.752-1.717-.857-2.716-.662h-.001l-2.387.552 1.973-1.442 80.217-58.637.001-.001.77-.558.534.708c.418.553.578.923.801 1.374.231.434.364.867.549 1.302.335.869.597 1.744.859 2.62.22.88.472 1.757.663 2.641l.54 2.653c.618 3.547 1.075 7.108 1.386 10.674.133 1.784.32 3.566.409 5.351l.272 5.355c.074 1.785.093 3.57.142 5.355.045 1.785.092 3.57.072 5.354-.01 3.568.022 7.138-.095 10.702-.082 3.566-.146 7.132-.329 10.693-.17 3.561-.267 7.127-.516 10.682l-.663 10.678-.812 10.648c-.267 3.549-.628 7.102-.938 10.653-.295 3.555-.721 7.094-1.084 10.641-.347 3.548-.847 7.082-1.265 10.623-.469 3.536-.967 7.07-1.518 10.597l-.868 5.286-.987 5.27c-.331 1.756-.742 3.501-1.109 5.252-.405 1.745-.83 3.487-1.293 5.223l-.734 2.597-.833 2.58c-.319.854-.608 1.71-.978 2.558-.192.424-.347.847-.574 1.272-.22.439-.393.807-.763 1.338l-.584.836zm-.533-2.99l.052-.094c.196-.36.349-.774.524-1.161.343-.783.625-1.616.929-2.428l.809-2.501.72-2.541c.455-1.703.875-3.42 1.276-5.141.364-1.732.771-3.454 1.1-5.195l.981-5.226.866-5.251c.549-3.506 1.047-7.022 1.516-10.542.419-3.528.919-7.045 1.267-10.583.363-3.535.79-7.065 1.086-10.605.311-3.541.672-7.071.941-10.621l.819-10.647.667-10.638c.251-3.547.349-7.099.521-10.649.185-3.55.25-7.102.334-10.653.119-3.552.089-7.102.1-10.652.021-1.776-.025-3.549-.069-5.323-.048-1.773-.065-3.548-.137-5.32l-.267-5.31c-.087-1.77-.271-3.53-.402-5.296-.305-3.525-.754-7.032-1.356-10.498l-.524-2.579c-.185-.856-.426-1.691-.635-2.538-.247-.827-.496-1.662-.801-2.452-.165-.383-.295-.806-.486-1.157-.158-.353-.401-.781-.516-.942l1.304.15-.001.001-80.771 57.873-.414-.89.003-.001c.67-.151 1.304-.176 1.982-.05.335.069.671.188.985.368.153.092.307.197.459.345.176.163.185.193.348.395.395.639.526 1.216.687 1.816.146.595.255 1.189.347 1.784.355 2.379.461 4.762.482 7.141.015 4.757-.322 9.495-.807 14.212-.159 1.177-.251 2.364-.466 3.533-.189 1.173-.391 2.344-.657 3.503-.227 1.167-.548 2.312-.835 3.465-.338 1.139-.634 2.291-1.015 3.417-.352 1.136-.758 2.253-1.162 3.372-.428 1.11-.865 2.216-1.339 3.308-.933 2.195-1.949 4.337-3.171 6.427v.001l-.116-.666 74.842 57.039z"/><path fill="#F1F2F2" d="M185.958 189.748c7.745-54.216 8.482-97 7.376-137.57-28.399-10.327-62.331-18.441-104.007-20.654-1.844 76.346-3.688 116.917-9.958 170.027 46.102-3.319 71.182-6.27 106.589-11.803z"/><path fill="#231F20" d="M185.868 189.659l1.997-17.051c.366-2.852.584-5.717.859-8.576l.823-8.575.413-4.286.311-4.297.616-8.592c.209-2.864.424-5.726.538-8.596l.44-8.601c.149-2.867.31-5.733.364-8.604l.244-8.608.122-4.304.039-4.306.064-8.611c.047-2.87.028-5.741.003-8.611l-.057-8.612c-.005-2.871-.11-5.741-.16-8.612l-.189-8.611.684.949-6.272-2.153c-2.098-.696-4.165-1.486-6.29-2.096l-6.341-1.94-3.167-.981-3.198-.875-6.401-1.733c-2.126-.609-4.281-1.102-6.437-1.593l-6.462-1.495c-2.147-.534-4.325-.916-6.496-1.337l-6.515-1.25c-2.166-.451-4.356-.764-6.542-1.096l-6.558-1.009-3.279-.511-3.296-.386-6.592-.773c-2.199-.241-4.391-.563-6.601-.697l-13.24-1.043.695-.643-1.497 42.572c-.123 3.548-.19 7.097-.36 10.644l-.496 10.64c-.348 7.092-.591 14.189-.892 21.283-.168 3.546-.232 7.098-.486 10.64l-.664 10.632-1.318 21.269c-.174 3.549-.53 7.083-.869 10.619l-1.024 10.606-2.128 21.207-.95-.994 26.729-2.045c2.227-.173 4.457-.32 6.678-.553l6.669-.641 13.343-1.253c2.225-.196 4.45-.398 6.666-.678l6.655-.775 13.313-1.551c2.222-.234 4.431-.578 6.647-.862l6.644-.894 13.221-1.751zm.105.188l-13.237 2.161-6.622 1.067c-2.21.341-4.411.744-6.628 1.035l-13.299 1.774-6.651.887c-2.215.317-4.438.557-6.662.79l-13.345 1.402-6.674.687c-2.223.249-4.453.411-6.681.599l-26.742 2.193c-.487.04-.914-.323-.954-.81l.001-.161.003-.024 2.241-21.165 1.16-10.58c.399-3.526.815-7.05 1.05-10.59l1.692-21.221.842-10.613c.278-3.538.368-7.088.561-10.631.324-7.091.705-14.179.981-21.272l.44-10.638c.151-3.546.199-7.096.303-10.644l.915-42.583v-.006c.008-.36.306-.646.666-.638l.028.001 13.298.867c2.22.105 4.424.398 6.636.611l6.631.687 3.316.344 3.3.469 6.599.956c2.2.32 4.403.621 6.583 1.061l6.558 1.216c2.185.41 4.378.781 6.54 1.304l6.508 1.463c2.171.481 4.342.962 6.485 1.562l6.451 1.704 3.223.861 3.193.967 6.379 1.957c2.137.619 4.216 1.418 6.324 2.124l6.305 2.182c.413.143.675.526.684.939v.01l.169 8.628c.043 2.876.142 5.751.14 8.628l.037 8.631c.015 2.877.038 5.754-.032 8.631l-.16 8.63-.087 4.315-.17 4.313-.341 8.625c-.087 2.876-.28 5.747-.461 8.618l-.537 8.614c-.155 2.873-.43 5.737-.689 8.602l-.773 8.595-.39 4.296-.492 4.288-.987 8.573c-.35 2.854-.644 5.716-1.085 8.556l-2.457 17.069-.086.084z"/><path fill="#BE1E2D" d="M114.061 132.033c7.269-6.854 16.407-2.077 17.653 7.684 0 .415-13.915-1.662-17.653-7.684z"/><path fill="#75131C" d="M114.015 132.025l1.142-1.081c.371-.354.836-.616 1.262-.92.42-.328.924-.489 1.387-.741.458-.271.995-.34 1.494-.509.502-.177 1.044-.165 1.566-.255.527-.057 1.062.003 1.593.023.523.089 1.044.209 1.556.34.491.2.999.368 1.454.633.439.294.931.502 1.316.865.397.342.829.64 1.161 1.047.359.376.738.733 1.024 1.169.307.418.63.823.878 1.278.262.446.552.879.739 1.363.201.476.473.927.611 1.429.152.495.36.978.471 1.486l.331 1.528.002.009v.029c.001.078-.049.186-.112.237l-.075.047-.101.035-.117.018-.181.008-.329-.008-.633-.051c-.418-.043-.833-.097-1.245-.165-.824-.134-1.641-.296-2.454-.482-1.625-.368-3.23-.841-4.784-1.455-1.557-.606-3.064-1.358-4.466-2.28-1.381-.939-2.676-2.096-3.475-3.571l-.015-.026zm.101.015c.967 1.324 2.292 2.305 3.684 3.114 1.401.832 2.915 1.46 4.445 2.026 1.537.553 3.103 1.032 4.688 1.444.793.204 1.592.386 2.395.539.402.074.803.151 1.205.21l.599.077.29.021.129.001.036-.002-.027.013-.041.03c-.057.04-.1.136-.093.203l.002.037-.221-1.498c-.071-.502-.24-.98-.358-1.473-.105-.499-.334-.955-.513-1.43-.172-.481-.446-.91-.693-1.353-.224-.46-.552-.851-.869-1.247-.293-.417-.674-.754-1.035-1.109-.35-.368-.793-.623-1.197-.92-.393-.317-.881-.478-1.311-.724-.446-.221-.94-.324-1.396-.513-.481-.108-.967-.209-1.453-.281-.493.006-.985-.095-1.478-.047-.487.072-.995.04-1.47.195-.475.143-.977.204-1.43.421-.452.207-.957.326-1.371.607-.423.266-.886.469-1.301.773l-1.216.886z"/><path fill="#231F20" d="M182.085 138.482l-.907.417c-.586.284-1.469.639-2.607 1.093-1.139.439-2.534.944-4.165 1.433-.811.264-1.683.511-2.606.759-.92.271-1.898.502-2.924.725-1.023.245-2.095.465-3.21.668-1.112.228-2.269.421-3.463.598-1.192.202-2.424.339-3.685.473-1.26.157-2.553.261-3.87.34-1.317.108-2.658.152-4.017.187-1.36.063-2.736.04-4.125.016-1.39-.001-2.789-.059-4.193-.152l-2.111-.127-2.108-.211c-1.408-.135-2.817-.273-4.206-.507-1.391-.221-2.79-.383-4.152-.674l-4.099-.807c-1.262-.226-2.723-.581-4.017-.973-2.619-.792-5.092-1.799-7.304-3.015-2.225-1.192-4.189-2.575-5.879-3.985-1.675-1.434-3.078-2.891-4.183-4.294-1.112-1.397-1.919-2.736-2.524-3.859-.578-1.145-.959-2.072-1.14-2.742-.097-.329-.16-.587-.185-.765l-.014-.273c-.016.014.214.283.706.723.499.433 1.212 1.064 2.174 1.786.927.749 2.12 1.57 3.463 2.48 1.348.907 2.891 1.865 4.599 2.828 1.699.98 3.594 1.918 5.61 2.868 2.026.932 4.206 1.82 6.511 2.646.578.222 1.148.411 1.723.601.549.2 1.217.406 1.845.608 1.185.347 2.523.621 3.795.949 1.285.342 2.607.557 3.924.833 1.317.281 2.649.5 3.984.712l2.002.327 2.009.245 2.003.254 1.998.185c1.328.128 2.649.236 3.957.293 1.307.082 2.601.155 3.875.161 1.274.029 2.529.063 3.757.034 1.23 0 2.433-.027 3.603-.084 1.173-.031 2.314-.083 3.415-.173 1.104-.066 2.17-.154 3.189-.272 1.023-.096 2.001-.213 2.93-.335.932-.11 1.816-.225 2.64-.367 1.658-.246 3.091-.543 4.276-.767 1.177-.247 2.108-.459 2.738-.625l.968-.235z"/><path fill="#414042" d="M84.808 65.179l-71.644 33.471v1.936l70.538-23.236z"/><path fill="#231F20" d="M84.764 65.242c-2.945 1.429-5.879 2.879-8.832 4.29l-8.929 4.241c-5.957 2.817-11.89 5.686-17.882 8.43l-17.975 8.23c-2.99 1.385-6.002 2.722-8.973 4.146l-8.932 4.233.103-.162.011 1.936-.25-.181 17.59-5.942 17.613-5.873 17.648-5.767 17.682-5.664-.136.171c.387-4.031.838-8.058 1.262-12.088zm.081-.06c-.312 4.062-.596 8.127-.945 12.186-.007.081-.064.147-.136.172l-17.586 5.954-17.62 5.851-17.655 5.745-17.678 5.676c-.099.033-.207-.02-.24-.119l-.01-.061.011-1.936c0-.071.043-.134.104-.163l8.979-4.134c2.999-1.366 5.957-2.817 8.938-4.222l17.847-8.505c5.949-2.835 11.957-5.544 17.94-8.306l8.982-4.127c2.997-1.369 6.013-2.698 9.019-4.049l.05.019v.019z"/><path fill="#6D6E71" d="M193.795 75.414l.645-9.22s-16.136-6.547-41.861-9.313c-25.725-2.766-66.388-1.383-66.388-1.383l.83 6.639s52.834 9.405 74.41 11.895c21.576 2.488 32.364 1.382 32.364 1.382z"/><path fill="#414042" d="M162.537 70.25c25.146 3.509 35.13 2.674 35.13 2.674s.553 4.979.277 24.342c-.277 19.363-.83 26.775-.83 26.775s-20.193 6.362-26.832-1.936-5.532-10.455-10.511-11.008c-4.979-.553-7.192 4.149-14.661 9.682-7.469 5.532-28.492 1.936-43.705-3.043l-17.98-16.044 1.106-41.216s-.83-3.873 3.873-3.596c4.703.277 38.45 8.391 74.133 13.37z"/><path fill="#231F20" d="M162.557 70.102l8.751 1.082 4.388.391c1.463.119 2.921.291 4.39.343l4.397.231 4.396.123c1.464.035 2.927.01 4.388.013l2.185-.068c.717-.035 1.464-.072 2.144-.138l.818-.079.098.831c.131 1.114.184 2.17.262 3.244.081 1.073.147 2.145.181 3.211.085 2.136.193 4.275.236 6.412l.069 6.405.004 3.203-.013 3.208c-.019 2.131-.065 4.261-.116 6.391-.057 2.132-.071 4.256-.166 6.396l-.279 6.407c-.118 2.143-.248 4.258-.431 6.42l-.068.806-.731.203c-2.745.761-5.458 1.292-8.239 1.666-2.772.361-5.582.539-8.402.349-2.801-.202-5.687-.745-8.207-2.242-1.246-.729-2.367-1.803-3.171-2.945-.833-1.081-1.658-2.224-2.43-3.368-.777-1.146-1.503-2.329-2.24-3.479-.74-1.142-1.461-2.303-2.54-2.884-.529-.31-1.168-.452-1.808-.578-.659-.108-1.309-.183-1.937-.129-1.276.103-2.463.688-3.534 1.473-2.134 1.602-4.047 3.63-6.134 5.44-1.037.917-2.11 1.798-3.213 2.64-.316.246-.577.401-.869.605-.306.185-.643.365-.966.539-.65.307-1.311.579-1.987.804-2.71.884-5.526 1.144-8.308 1.248-2.789.074-5.569-.07-8.331-.335-5.526-.537-10.988-1.536-16.371-2.852-2.697-.676-5.34-1.41-8.024-2.267-2.648-.853-5.331-2.024-7.755-3.529-2.443-1.505-4.684-3.38-6.576-5.582-.95-1.098-1.803-2.283-2.553-3.54-.371-.631-.716-1.28-1.027-1.952-.314-.694-.582-1.317-.825-2.17l-.047-.166.004-.227.198-10.306.216-10.306.267-10.304.328-10.303.034.367c-.075-.412-.082-.638-.086-.955.001-.296.025-.596.079-.901.103-.607.344-1.251.758-1.815.412-.566.987-1.003 1.567-1.27.582-.274 1.16-.401 1.702-.462.567-.056 1.003-.059 1.607-.012l1.273.161c.882.15 1.798.307 2.619.477 3.365.674 6.688 1.383 10.01 2.125l19.912 4.462c6.642 1.46 13.303 2.837 19.979 4.144l5.019.914 5.026.873c3.352.557 6.717 1.046 10.079 1.557zm-.04.297c-3.369-.474-6.743-.927-10.106-1.448-3.372-.464-6.733-.994-10.101-1.492-6.738-.979-13.461-2.064-20.182-3.169-6.72-1.109-13.433-2.269-20.122-3.516-3.346-.607-6.686-1.276-10.01-1.846-.849-.158-1.614-.257-2.409-.392-.405-.058-.84-.097-1.259-.146-.244-.014-.661-.015-.94.024-.623.079-.987.291-1.143.526-.086.126-.16.296-.195.527-.018.114-.027.239-.025.368l.026.314.04.098-.006.269-.225 10.308-.286 10.304-.337 10.302-.355 10.302-.043-.392c.126.471.375 1.127.626 1.684.258.578.551 1.148.868 1.706.643 1.112 1.385 2.176 2.22 3.168 1.661 1.994 3.667 3.709 5.872 5.131 2.218 1.444 4.579 2.555 7.139 3.451 2.532.875 5.168 1.679 7.786 2.402 5.253 1.449 10.587 2.657 15.985 3.372 2.698.361 5.412.576 8.12.594 2.698-.014 5.426-.186 7.98-.933.635-.19 1.255-.418 1.852-.69.283-.149.558-.285.843-.448.274-.185.606-.382.832-.557 1.096-.805 2.164-1.65 3.202-2.536 2.109-1.738 3.968-3.752 6.25-5.435 1.138-.828 2.509-1.504 3.995-1.621.746-.069 1.471.013 2.167.121.702.132 1.431.283 2.102.662.673.362 1.234.895 1.693 1.453.447.565.84 1.147 1.215 1.725.747 1.162 1.501 2.295 2.291 3.408.794 1.115 1.605 2.182 2.475 3.257.804 1.088 1.755 1.909 2.907 2.532 2.286 1.239 4.981 1.655 7.639 1.733 2.674.071 5.368-.209 8.029-.662 2.651-.46 5.322-1.099 7.844-1.908l-.799 1.008c.049-1.045.082-2.103.108-3.167l.101-3.182.14-6.371.27-12.777.06-3.183.044-3.19.148-6.38.067-6.372c.024-1.065.016-2.123-.005-3.178-.018-1.054-.016-2.129-.079-3.138l.914.752c-.787.03-1.51.021-2.262.014l-2.224-.061c-1.477-.086-2.954-.144-4.425-.262l-4.408-.372-4.393-.479c-1.464-.152-2.925-.333-4.386-.511l-4.381-.533-8.744-1.168z"/><path fill="#A7A9AC" d="M197.576 77.8c-2.581-.551-20.101-1.469-23.051-2.02-2.95-.551-5.717 2.203-6.27 6.059 0 0-3.319 14.689-4.057 20.932-.738 6.243 2.767 7.528 7.562 11.568 4.794 4.039 21.391 2.203 23.419 1.836 2.028-.367 5.532-.184 5.717-2.387.185-2.203.922-34.335.922-34.335s-1.661-1.102-4.242-1.653z"/><path fill="#231F20" d="M197.567 77.849l-4.085-.419c-1.365-.102-2.729-.2-4.095-.276l-8.201-.445c-1.367-.065-2.736-.143-4.114-.28l-2.063-.197-1-.1c-.314-.01-.583.004-.898.065-1.222.233-2.26 1.086-3.019 2.11-.753 1.046-1.217 2.3-1.418 3.592l-.003.02-.003.013-1.41 6.148c-.486 2.047-.906 4.106-1.352 6.161-.211 1.03-.464 2.053-.64 3.088l-.519 3.107c-.146 1.037-.406 2.07-.459 3.111-.066 1.038-.015 2.078.269 3.072.557 2.017 2.168 3.496 3.814 4.753l2.506 1.92c.412.308.836.695 1.231.952.442.283.878.603 1.347.756 1.847.791 3.962 1.089 6.018 1.289 2.074.192 4.169.208 6.258.152 2.091-.049 4.182-.179 6.264-.382 1.036-.1 2.092-.219 3.088-.383 1.09-.19 2.133-.241 3.121-.433.964-.186 1.941-.537 2.118-1.238l.05-.27.011-.394.023-.789.046-1.577.184-6.309c.051-2.104.149-4.205.232-6.307.08-2.102.173-4.203.285-6.304.198-4.202.444-8.402.576-12.607l.04.079c-.312-.205-.658-.366-.99-.546-.337-.172-.696-.298-1.043-.449-.177-.068-.346-.157-.529-.207l-.546-.158-1.094-.318zm.018-.098l1.108.3.554.15c.185.048.358.134.537.2.353.147.718.268 1.062.437.341.177.69.332 1.019.541l.041.026-.001.053c-.094 4.208-.074 8.421-.101 12.633-.001 2.106-.021 4.212-.054 6.316-.03 2.105-.045 4.21-.107 6.313l-.155 6.311-.039 1.578-.019.789-.01.394c-.02.185-.055.338-.088.507-.179.688-.752 1.196-1.287 1.461-.547.281-1.104.416-1.647.517-1.082.194-2.149.236-3.135.398-1.081.165-2.12.267-3.179.358-2.109.181-4.222.287-6.339.312-2.116.018-4.238-.046-6.351-.283-2.112-.249-4.219-.611-6.224-1.538-.529-.207-.936-.531-1.371-.828-.475-.335-.817-.678-1.238-1.011l-2.453-1.987c-.811-.675-1.624-1.366-2.324-2.18-.7-.809-1.261-1.766-1.543-2.809-.292-1.038-.318-2.13-.259-3.186.041-1.065.286-2.089.419-3.137.309-2.086.638-4.169 1.029-6.237.377-2.072.728-4.15 1.149-6.213.406-2.066.799-4.135 1.261-6.191l-.006.033c.205-1.413.695-2.799 1.534-3.99.829-1.181 2.094-2.151 3.59-2.418.358-.067.777-.08 1.145-.053l1.041.126 2.021.231c1.342.178 2.701.326 4.066.447l8.18.791 4.093.358 4.081.481z"/><path fill="#A7A9AC" d="M150.703 73.017c-4.979-.737-30.764-5.348-41.46-5.532s-16.782-.737-18.811.553c-2.029 1.291-3.135 17.519-2.213 25.449s2.912 10.605 9.958 13.462c6.823 2.766 14.58 4.447 25.633 5.348 15.86 1.291 21.392 1.66 24.159-.368 4.54-3.329 7.745-4.795 8.667-8.299 1.032-3.923.368-16.966-.031-20.654-.418-3.855-.923-9.222-5.902-9.959z"/><path fill="#231F20" d="M150.696 73.066l-8.529-1.34c-2.71-.447-6.017-.888-9.804-1.426l-6.041-.786-6.704-.786c-4.686-.509-9.715-.851-15.132-.924-2.697-.07-5.468-.193-8.286-.225-1.404 0-2.838.006-4.216.246-.343.064-.673.154-.988.27l-.403.202c-.168.126-.212.221-.295.336-.333.572-.546 1.278-.731 1.974-.696 2.825-1.022 5.815-1.246 8.825-.208 3.015-.329 6.079-.252 9.163.078 3.076.34 6.199 1.101 9.206.401 1.493.997 2.941 1.91 4.173.93 1.22 2.161 2.179 3.5 2.946 1.339.761 2.785 1.399 4.23 1.917l4.445 1.521c1.494.437 3.009.754 4.504 1.136 1.485.415 3.017.636 4.536.879 1.522.224 3.021.544 4.538.71l4.53.467c2.994.346 5.993.51 8.921.74 2.933.201 5.816.416 8.63.51 1.405.037 2.797.063 4.15-.029 1.343-.097 2.687-.261 3.803-.794.289-.117.534-.293.791-.452l.82-.582 1.625-1.139c1.087-.749 2.133-1.476 3.118-2.235.929-.794 1.863-1.591 2.38-2.617.173-.233.265-.503.362-.77.086-.258.232-.544.272-.776l.307-1.756c.417-4.576.339-8.958.238-12.756-.143-3.813-.291-7.159-.841-9.84-.288-1.333-.706-2.493-1.268-3.387-.555-.901-1.256-1.499-1.879-1.864-1.282-.704-2.115-.694-2.096-.737zm.015-.099c-.018.045.824.021 2.144.726.642.366 1.371.973 1.949 1.888.586.909 1.024 2.084 1.331 3.429.559 2.706.857 6.039 1.096 9.862.116 1.912.224 3.948.264 6.1.06 2.153.055 4.406-.134 6.827l-.274 1.764c-.062.36-.201.62-.3.938-.106.306-.21.615-.396.885-.585 1.192-1.588 2.078-2.557 2.937-1.006.818-2.082 1.562-3.151 2.304l-1.615 1.139-.811.579c-.309.199-.616.411-.954.552-1.335.633-2.768.792-4.17.903-1.411.101-2.824.077-4.25.044-2.849-.086-5.741-.284-8.677-.523-2.937-.255-5.916-.442-8.938-.815l-4.556-.507c-1.525-.183-3.042-.506-4.571-.766-1.528-.272-3.065-.522-4.575-.971-1.512-.414-3.051-.767-4.547-1.234l-4.418-1.599c-1.494-.567-2.921-1.228-4.298-2.04-1.364-.815-2.64-1.845-3.592-3.145-.937-1.312-1.519-2.825-1.902-4.351-.753-3.068-.99-6.198-1.049-9.293-.063-3.095-.001-6.167.19-9.195.218-3.026.445-6.02 1.095-8.93.178-.726.364-1.448.749-2.15.116-.189.283-.396.409-.489.223-.156.367-.21.556-.311.364-.145.731-.252 1.098-.329 1.468-.288 2.914-.321 4.338-.354 2.847-.046 5.617.046 8.313.107 2.693.063 5.315.066 7.87.269 1.278.057 2.521.198 3.741.337l3.59.396c4.676.613 8.94 1.306 12.718 1.921l9.769 1.667 8.515 1.428z"/><g fill="#F1F2F2"><path opacity=".8" d="M196.91 80.916c-1.1-.235-6.961-.659-11.241-.969-6.289-.456-10.216-.753-11.73-1.035l-.169-.016c-.766 0-2.048 1.209-2.362 3.396l-.017.126-.028.124c-.034.145-3.291 14.596-4.001 20.603-.399 3.368.615 4.157 3.974 6.772.774.602 1.604 1.25 2.476 1.984.507.427 2.777 1.821 10.694 1.821 4.815 0 15.528-1.152 16.005-1.242.163-4.06.55-19.662.818-31.207-.47-.179-3.78-.22-4.419-.357zM153.418 83.14c-.494-4.568-1.071-6.659-3.181-6.971-.939-.139-2.609-.414-4.776-.771-9.025-1.487-27.804-4.582-36.272-4.727-2.393-.041-4.557-.1-6.496-.154-2.373-.065-4.422-.122-6.104-.122-2.318 0-3.467.12-4.016.221-1.064 3.164-2.034 15.21-1.186 22.503.784 6.741 2.054 8.47 7.99 10.877 6.646 2.694 14.263 4.275 24.694 5.124 7.791.634 13.164 1.05 16.731 1.05 2.81 0 4.539-.266 5.285-.812.964-.707 1.869-1.332 2.708-1.91 3.003-2.074 4.348-3.056 4.762-4.628.817-3.106.339-15.287-.118-19.5l-.021-.18z"/></g><radialGradient id="a" cx="75.127" cy="77.073" r="142.907" gradientUnits="userSpaceOnUse"><stop offset=".006" stop-color="#DEE3E6"/><stop offset=".253" stop-color="#FFFDE5"/><stop offset=".395" stop-color="#F0ECD8"/><stop offset=".596" stop-color="#D6CDC1"/><stop offset=".786" stop-color="#EDEDEE"/><stop offset="1" stop-color="#D8D5BB"/></radialGradient><path fill="url(#a)" d="M153.418 83.14c-.494-4.568-1.071-6.659-3.181-6.971-.939-.139-2.609-.414-4.776-.771-9.025-1.487-27.804-4.582-36.272-4.727-2.393-.041-4.557-.1-6.496-.154-2.373-.065-4.422-.122-6.104-.122-2.318 0-3.467.12-4.016.221-1.064 3.164-2.034 15.21-1.186 22.503.784 6.741 2.054 8.47 7.99 10.877 6.646 2.694 14.263 4.275 24.694 5.124 7.791.634 13.164 1.05 16.731 1.05 2.81 0 4.539-.266 5.285-.812.964-.707 1.869-1.332 2.708-1.91 3.003-2.074 4.348-3.056 4.762-4.628.817-3.106.339-15.287-.118-19.5l-.021-.18z"/><radialGradient id="b" cx="75.128" cy="77.073" r="142.905" gradientUnits="userSpaceOnUse"><stop offset=".006" stop-color="#DEE3E6"/><stop offset=".253" stop-color="#FFFDE5"/><stop offset=".395" stop-color="#F0ECD8"/><stop offset=".596" stop-color="#D6CDC1"/><stop offset=".786" stop-color="#EDEDEE"/><stop offset="1" stop-color="#D8D5BB"/></radialGradient><path fill="url(#b)" d="M196.91 80.916c-1.1-.235-6.961-.659-11.241-.969-6.289-.456-10.216-.753-11.73-1.035l-.169-.016c-.766 0-2.048 1.209-2.362 3.396l-.017.126-.028.124c-.034.145-3.291 14.596-4.001 20.603-.399 3.368.615 4.157 3.974 6.772.774.602 1.604 1.25 2.476 1.984.507.427 2.777 1.821 10.694 1.821 4.815 0 15.528-1.152 16.005-1.242.163-4.06.55-19.662.818-31.207-.47-.179-3.78-.22-4.419-.357z"/><g fill="#E6E7E8" stroke="#231F20" stroke-width=".998" stroke-miterlimit="15"><path d="M153.418 83.14c-.494-4.568-1.071-6.659-3.181-6.971-.939-.139-2.609-.414-4.776-.771-9.025-1.487-27.804-4.582-36.272-4.727-2.393-.041-4.557-.1-6.496-.154-2.373-.065-4.422-.122-6.104-.122-2.318 0-3.467.12-4.016.221-1.064 3.164-2.034 15.21-1.186 22.503.784 6.741 2.054 8.47 7.99 10.877 6.646 2.694 14.263 4.275 24.694 5.124 7.791.634 13.164 1.05 16.731 1.05 2.81 0 4.539-.266 5.285-.812.964-.707 1.869-1.332 2.708-1.91 3.003-2.074 4.348-3.056 4.762-4.628.817-3.106.339-15.287-.118-19.5l-.021-.18zM196.91 80.916c-1.1-.235-6.961-.659-11.241-.969-6.289-.456-10.216-.753-11.73-1.035l-.169-.016c-.766 0-2.048 1.209-2.362 3.396l-.017.126-.028.124c-.034.145-3.291 14.596-4.001 20.603-.399 3.368.615 4.157 3.974 6.772.774.602 1.604 1.25 2.476 1.984.507.427 2.777 1.821 10.694 1.821 4.815 0 15.528-1.152 16.005-1.242.163-4.06.55-19.662.818-31.207-.47-.179-3.78-.22-4.419-.357z"/></g><g opacity=".3" fill="#231F20"><path d="M92.571 72.429c.549-.1 1.698-.221 4.016-.221 1.683 0 3.732.057 6.104.122 1.94.053 4.103.113 6.496.154 8.468.146 27.248 3.241 36.272 4.727 2.166.357 3.837.632 4.776.772 2.11.312 2.687 2.403 3.181 6.971l.019.178c.256 2.363.519 7.23.556 11.599.036-4.757-.264-10.716-.556-13.413l-.019-.178c-.494-4.568-1.071-6.659-3.181-6.971-.939-.139-2.609-.414-4.776-.771-9.025-1.487-27.804-4.582-36.272-4.727-2.393-.041-4.557-.1-6.496-.154-2.373-.065-4.422-.122-6.104-.122-2.318 0-3.467.12-4.016.221-.814 2.42-1.569 10.033-1.502 16.744.068-6.215.761-12.727 1.502-14.931zM167.362 104.959c.71-6.007 3.968-20.458 4.001-20.603l.028-.124.017-.126c.314-2.186 1.596-3.396 2.362-3.396l.169.016c1.514.282 5.442.58 11.73 1.035 4.28.31 10.141.734 11.241.969.625.133 3.797.176 4.376.346l.042-1.803c-.47-.179-3.78-.221-4.418-.357-1.1-.235-6.961-.659-11.241-.969-6.289-.456-10.216-.753-11.73-1.035l-.169-.016c-.766 0-2.048 1.209-2.362 3.396l-.017.126-.028.124c-.034.145-3.291 14.596-4.001 20.603-.099.837-.11 1.514-.021 2.101l.021-.287z"/></g><path fill="#414042" d="M85.5 105.427s-15.629 9.682-31.811 1.66c-10.449-5.18-8.634-28.757-3.089-42.368 8.114-19.916 26.924-50.897 82.616-51.267 44.272-.293 66.388 23.974 61.224 52.742 0 0 2.527-6.797-32.456-10.327-40.201-4.057-73.248 1.361-73.248 1.361s-5.449 26.761-3.236 48.199z"/><path fill="#231F20" d="M85.552 105.512c-2.477 1.497-5.154 2.639-7.92 3.498-2.766.859-5.635 1.417-8.541 1.605-2.902.197-5.85.019-8.707-.616-1.434-.295-2.838-.725-4.213-1.228-.685-.26-1.368-.525-2.03-.84-.667-.289-1.346-.62-1.988-1.066-2.552-1.749-4.12-4.512-5.081-7.286-.965-2.807-1.434-5.733-1.61-8.65-.335-5.844.297-11.679 1.546-17.363.634-2.842 1.441-5.651 2.484-8.388 1.065-2.708 2.227-5.363 3.51-7.972 2.596-5.194 5.673-10.171 9.314-14.713 1.814-2.273 3.737-4.468 5.838-6.483 2.079-2.035 4.28-3.946 6.603-5.694 4.611-3.544 9.677-6.459 14.969-8.811 5.288-2.376 10.836-4.102 16.461-5.407 5.63-1.297 11.362-2.105 17.113-2.54 5.755-.42 11.522-.565 17.294-.26 5.766.311 11.514 1.097 17.139 2.475 5.626 1.358 11.1 3.43 16.195 6.248 5.051 2.871 9.743 6.532 13.402 11.133 3.712 4.543 6.359 9.968 7.695 15.698 1.388 5.735 1.326 11.736.359 17.511l-1.839-.502-.023.054-.002-.07-.044-.206c-.055-.155-.135-.33-.259-.504-.237-.351-.592-.694-.982-1.006-.791-.626-1.737-1.15-2.722-1.602-1.979-.903-4.11-1.575-6.264-2.151-4.326-1.124-8.776-1.881-13.242-2.486-2.235-.302-4.473-.589-6.72-.823-2.215-.252-4.506-.417-6.755-.63-2.263-.228-4.509-.331-6.762-.485-2.249-.166-4.51-.242-6.768-.334-2.258-.112-4.519-.149-6.78-.188-2.26-.062-4.522-.05-6.783-.046-2.261-.012-4.522.05-6.784.075-2.262.021-4.521.132-6.782.193-2.259.108-4.52.199-6.777.345-2.258.136-4.514.295-6.768.484-4.502.383-9.02.833-13.47 1.48l.608-.585c-.807 3.923-1.474 7.908-2.056 11.89-.284 1.994-.558 3.99-.786 5.991-.121 1-.239 2-.334 3.003l-.295 3.007c-.165 2.007-.343 4.014-.455 6.026-.072 1.005-.127 2.011-.157 3.018l-.108 3.021-.029 3.023c-.026 1.008.029 2.015.045 3.023.027 1.007.034 2.017.116 3.021l.195 3.019-.05.094zm-.159-.143l-.285-2.95c-.115-1.006-.154-2.016-.213-3.026-.048-1.01-.136-2.02-.142-3.031l-.068-3.034.012-3.035c-.002-1.012.021-2.024.061-3.035.048-2.024.155-4.045.285-6.065l.23-3.027c.073-1.01.17-2.017.269-3.024.185-2.016.416-4.027.658-6.037.498-4.021 1.075-8.02 1.808-12.025.056-.309.301-.536.595-.583l.014-.002c4.519-.729 9.029-1.232 13.56-1.682 2.264-.221 4.531-.412 6.799-.579 2.268-.178 4.539-.3 6.809-.439 2.272-.093 4.544-.235 6.818-.287 2.274-.062 4.548-.147 6.824-.133 2.275-.011 4.55-.029 6.825.026 2.275.033 4.55.064 6.824.17 2.274.086 4.548.156 6.824.317 2.273.149 4.561.249 6.813.469 2.267.208 4.503.361 6.796.614 2.265.233 4.53.503 6.789.822 4.516.647 9.024 1.445 13.473 2.637 2.221.613 4.43 1.322 6.573 2.318 1.069.504 2.124 1.084 3.109 1.873.488.401.965.849 1.363 1.441.2.291.372.631.495 1.013.058.195.103.401.12.627l.001.354c-.015.14-.012.217-.094.472-.16.502-.697.779-1.199.618-.46-.147-.731-.61-.649-1.073l.008-.048c.974-5.548 1.06-11.288-.205-16.778-1.206-5.491-3.662-10.711-7.177-15.129-3.472-4.46-7.914-8.131-12.805-11.027-4.921-2.857-10.272-4.993-15.808-6.428-5.529-1.465-11.225-2.343-16.95-2.664-2.849-.165-5.744-.242-8.604-.192-1.435.038-2.871.043-4.305.107l-4.299.254c-5.721.481-11.411 1.334-16.987 2.668-5.582 1.308-11.022 3.202-16.192 5.639-5.17 2.434-10.088 5.403-14.534 8.969-2.24 1.759-4.355 3.674-6.346 5.706-2.004 2.019-3.895 4.15-5.646 6.392-3.535 4.462-6.502 9.358-9.033 14.462-1.278 2.544-2.445 5.157-3.509 7.796-1.028 2.633-1.838 5.364-2.479 8.132-1.265 5.537-1.927 11.252-1.648 16.91.162 2.82.529 5.642 1.395 8.299.852 2.636 2.255 5.164 4.469 6.743.532.388 1.144.708 1.791 1.002.632.317 1.285.584 1.94.849 1.316.511 2.662.954 4.042 1.266 1.374.336 2.776.556 4.187.689 1.41.144 2.833.188 4.254.132 2.843-.095 5.679-.553 8.434-1.315 2.73-.768 5.417-1.773 7.91-3.138z"/><path fill="#231F20" stroke="#231F20" stroke-linejoin="round" stroke-miterlimit="10" d="M88.405 56.235s30.98-11.248 91.651-4.425 14.755 19.916 14.202 19.732c-.553-.184 4.056-2.95-30.613-7.192l-75.24-8.115z"/><path fill="#F1F2F2" d="M57.146 104.182c-7.745-9.958-2.49-44.627 29.229-67.126 22.623-16.046 63.732-17.561 89.309-10.865-10.367-6.991-24.727-10.751-41.675-10.751l-.78.002c-40.756.27-67.181 16.634-80.785 50.027-5.232 12.843-7.053 35.281 2.129 39.832 2.234 1.107 4.574 1.896 6.995 2.386-1.851-1.01-3.381-2.167-4.422-3.505z" opacity=".1"/><path fill="#A7A9AC" d="M88.404 56.42s.534-.21 1.554-.565c1.022-.344 2.527-.838 4.47-1.369l3.231-.835 3.833-.88 4.387-.88 4.894-.81c3.421-.495 7.135-1 11.083-1.341 1.971-.217 4.001-.353 6.077-.487 2.075-.145 4.197-.29 6.358-.335 2.16-.06 4.357-.164 6.58-.191l6.745.001c2.27-.013 4.554.128 6.849.185 2.295.076 4.6.135 6.898.311l6.888.475c2.288.176 4.56.441 6.818.654 4.517.413 8.947.966 13.227 1.623 4.278.654 8.398 1.437 12.256 2.462 1.927.516 3.793 1.086 5.553 1.805.879.362 1.734.755 2.542 1.229.806.47 1.583.999 2.231 1.706.643.684 1.16 1.663 1.065 2.688-.093 1.005-.615 1.813-1.171 2.427-1.146 1.233-2.461 2.028-3.7 2.716-2.502 1.348-4.81 2.195-6.713 2.86-1.906.661-3.439 1.066-4.483 1.335-.523.132-.927.223-1.2.277-.273.058-.418.059-.418.059s.143-.011.412-.086c.269-.072.664-.189 1.176-.355 1.025-.328 2.513-.859 4.378-1.596 1.855-.751 4.108-1.709 6.475-3.14 1.168-.719 2.398-1.57 3.341-2.697.461-.56.816-1.215.847-1.868.036-.651-.304-1.288-.845-1.834-1.108-1.088-2.739-1.846-4.425-2.475-1.704-.629-3.53-1.151-5.43-1.604-3.803-.908-7.898-1.567-12.144-2.167-4.246-.6-8.668-1.034-13.161-1.444-2.247-.201-4.508-.453-6.784-.616l-6.851-.44c-2.284-.187-4.574-.257-6.854-.344-2.28-.068-4.551-.22-6.806-.218l-6.701-.074c-2.21-.007-4.392.063-6.539.09-2.149.008-4.256.136-6.321.218-2.066.081-4.087.165-6.048.331-3.93.254-7.634.622-11.052.991l-4.893.622-4.401.662-3.854.689-3.256.674c-1.957.447-3.493.812-4.532 1.097-1.038.288-1.586.464-1.586.464z"/><g opacity=".5" fill="#fff" stroke="#fff" stroke-width="2" stroke-linecap="round" stroke-linejoin="round" stroke-miterlimit="10"><path d="M54.604 84.842c-.239 2.205-1.275 3.687-2.552 3.838-.088.01-.113.074-.126.207l-.136 1.405c-.025.15-.062.209-.146.188l-.576-.139c-.079-.019-.112-.091-.09-.235l.125-1.347c.012-.128-.035-.199-.091-.229-.988-.426-1.404-1.746-1.258-3.474l.559-6.533c.18-2.132 1.103-4.097 2.472-4.913l.43-.257c1.65-.984 2.612.271 2.311 3.057l-.922 8.432zm-1.558-9.753l-.424.219c-.709.367-1.324 1.619-1.44 2.86l-.614 6.85c-.076.835.109 1.571.533 1.954.092.071.162.01.185-.184l.094-.977c.012-.153.059-.219.143-.22l.604-.007c.09-.001.115.067.103.227l-.103.997c-.025.202.038.275.154.213.599-.34 1.018-1.163 1.119-2.128l.823-7.958c.157-1.451-.412-2.242-1.177-1.846zM61.94 80.181l-3.037.579c-.16.03-.227.133-.272.352l-.994 7.855c-.021.2-.103.276-.246.256l-1.129-.153c-.13-.017-.166-.104-.149-.293l2.141-17.837c.044-.233.11-.36.265-.451l5.263-3.078c3.894-2.277 6.364-.693 5.503 4.267-.736 4.219-3.919 7.851-7.345 8.503zm1.462-10.095l-3.327 1.683c-.173.089-.272.233-.296.465l-.784 6.095c-.023.22.023.299.186.254l3.104-.835c1.691-.456 3.438-2.607 3.841-4.862l.075-.417c.415-2.282-1.012-3.287-2.799-2.383z"/></g><g fill="#BE1E2D"><path d="M54.382 84.731c-.239 2.205-1.275 3.687-2.552 3.838-.088.01-.113.074-.126.207l-.136 1.405c-.025.15-.062.209-.146.188l-.576-.139c-.079-.019-.112-.091-.09-.235l.125-1.347c.012-.128-.035-.199-.091-.229-.988-.426-1.404-1.746-1.258-3.474l.559-6.533c.18-2.132 1.103-4.097 2.472-4.913l.43-.257c1.65-.984 2.612.271 2.311 3.057l-.922 8.432zm-1.557-9.753l-.424.219c-.709.367-1.324 1.619-1.44 2.86l-.614 6.85c-.076.835.109 1.571.533 1.954.092.071.162.01.185-.184l.094-.977c.012-.153.059-.219.143-.22l.604-.007c.09-.001.115.067.103.227l-.103.997c-.025.202.038.275.154.213.599-.34 1.018-1.163 1.12-2.128l.823-7.958c.156-1.451-.413-2.242-1.178-1.846zM61.718 80.07l-3.037.579c-.16.03-.227.133-.272.352l-.994 7.855c-.021.2-.103.276-.246.256l-1.129-.153c-.13-.017-.166-.104-.149-.293l2.141-17.837c.044-.233.11-.36.265-.451l5.263-3.078c3.894-2.277 6.364-.693 5.503 4.267-.736 4.22-3.919 7.851-7.345 8.503zm1.463-10.095l-3.327 1.683c-.173.089-.272.233-.296.465l-.784 6.095c-.023.22.023.299.186.254l3.104-.835c1.691-.456 3.438-2.607 3.841-4.862l.075-.417c.414-2.282-1.012-3.286-2.799-2.383z"/></g></svg>