<?xml version="1.0" encoding="utf-8"?>
<!-- Generator: Adobe Illustrator 17.1.0, SVG Export Plug-In . SVG Version: 6.00 Build 0)  -->
<!DOCTYPE svg PUBLIC "-//W3C//DTD SVG 1.1//EN" "http://www.w3.org/Graphics/SVG/1.1/DTD/svg11.dtd">
<svg version="1.1" id="art" xmlns="http://www.w3.org/2000/svg" xmlns:xlink="http://www.w3.org/1999/xlink" x="0px" y="0px"
	 viewBox="0 0 215 215" enable-background="new 0 0 215 215" xml:space="preserve">
<path fill="#C4C3C8" stroke="#C4C3C8" stroke-width="6" stroke-linecap="round" stroke-linejoin="round" stroke-miterlimit="3" d="
	M194.258,71.541c0.499,0.166,37.888-10.468,0.701-17.561c-2.283-23.096-23.918-40.779-61.743-40.528
	c-49.26,0.326-69.657,24.598-79.328,43.983L8.277,90.443c0,0,2.213-0.553,3.228,0.83c1.014,1.383,2.508,9.073,0.941,24.564
	s-8.871,26.887-8.871,26.887l75.461,58.166c0,0,0.183-0.236,0.51-0.864c-0.06,0.51-0.117,1.014-0.177,1.526
	c46.103-3.319,71.183-6.27,106.59-11.803c3.261-22.825,5.276-43.619,6.438-63.08c2.819-0.589,4.719-1.186,4.719-1.186
	s0.192-3.106,0.407-9.601c1.652-0.218,3.25-0.625,3.373-2.093c0.185-2.203,0.922-34.335,0.922-34.335s-1.522-0.999-3.906-1.569
	c-0.104-3.702-0.243-4.959-0.243-4.959s-1.324-0.098-3.961-0.348c-0.005-0.706-0.012-1.41-0.019-2.114
	C194.492,71.102,194.065,71.477,194.258,71.541z"/>
<g>
	<path fill="#BCBEC0" d="M79.036,200.89L3.575,142.724c0,0,7.304-11.396,8.871-26.887s0.073-23.181-0.941-24.564
		c-1.014-1.383-3.228-0.83-3.228-0.83l80.495-58.255c0,0,9.037,10.4,3.873,84.164C87.482,190.118,79.036,200.89,79.036,200.89z"/>
	<path fill="#231F20" d="M79.256,202.357L3.269,143.12l-0.36-0.28l0.244-0.386l0-0.001c1.248-1.952,2.355-4.055,3.358-6.18
		c0.499-1.067,0.952-2.155,1.402-3.245c0.425-1.099,0.853-2.198,1.227-3.317c0.405-1.108,0.723-2.245,1.061-3.375
		c0.293-1.142,0.621-2.277,0.854-3.434c0.273-1.148,0.482-2.309,0.678-3.473c0.222-1.159,0.322-2.337,0.489-3.505
		c0.47-4.704,0.714-9.439,0.542-14.154c-0.09-2.354-0.267-4.711-0.68-7.007c-0.106-0.572-0.227-1.141-0.38-1.692
		c-0.151-0.536-0.342-1.121-0.589-1.482c-0.502-0.752-1.717-0.857-2.716-0.662l-0.001,0l-2.387,0.552l1.973-1.442l80.217-58.637
		l0.001-0.001l0.77-0.558l0.534,0.708c0.418,0.553,0.578,0.923,0.801,1.374c0.231,0.434,0.364,0.867,0.549,1.302
		c0.335,0.869,0.597,1.744,0.859,2.62c0.22,0.88,0.472,1.757,0.663,2.641l0.54,2.653c0.618,3.547,1.075,7.108,1.386,10.674
		c0.133,1.784,0.32,3.566,0.409,5.351l0.272,5.355c0.074,1.785,0.093,3.57,0.142,5.355c0.045,1.785,0.092,3.57,0.072,5.354
		c-0.01,3.568,0.022,7.138-0.095,10.702c-0.082,3.566-0.146,7.132-0.329,10.693c-0.17,3.561-0.267,7.127-0.516,10.682l-0.663,10.678
		l-0.812,10.648c-0.267,3.549-0.628,7.102-0.938,10.653c-0.295,3.555-0.721,7.094-1.084,10.641
		c-0.347,3.548-0.847,7.082-1.265,10.623c-0.469,3.536-0.967,7.07-1.518,10.597l-0.868,5.286l-0.987,5.27
		c-0.331,1.756-0.742,3.501-1.109,5.252c-0.405,1.745-0.83,3.487-1.293,5.223l-0.734,2.597l-0.833,2.58
		c-0.319,0.854-0.608,1.71-0.978,2.558c-0.192,0.424-0.347,0.847-0.574,1.272c-0.22,0.439-0.393,0.807-0.763,1.338L79.256,202.357z
		 M78.723,199.367c0.016-0.033,0.037-0.063,0.052-0.094c0.196-0.36,0.349-0.774,0.524-1.161c0.343-0.783,0.625-1.616,0.929-2.428
		l0.809-2.501l0.72-2.541c0.455-1.703,0.875-3.42,1.276-5.141c0.364-1.732,0.771-3.454,1.1-5.195l0.981-5.226l0.866-5.251
		c0.549-3.506,1.047-7.022,1.516-10.542c0.419-3.528,0.919-7.045,1.267-10.583c0.363-3.535,0.79-7.065,1.086-10.605
		c0.311-3.541,0.672-7.071,0.941-10.621l0.819-10.647l0.667-10.638c0.251-3.547,0.349-7.099,0.521-10.649
		c0.185-3.55,0.25-7.102,0.334-10.653c0.119-3.552,0.089-7.102,0.1-10.652c0.021-1.776-0.025-3.549-0.069-5.323
		c-0.048-1.773-0.065-3.548-0.137-5.32l-0.267-5.31c-0.087-1.77-0.271-3.53-0.402-5.296c-0.305-3.525-0.754-7.032-1.356-10.498
		l-0.524-2.579c-0.185-0.856-0.426-1.691-0.635-2.538c-0.247-0.827-0.496-1.662-0.801-2.452c-0.165-0.383-0.295-0.806-0.486-1.157
		c-0.158-0.353-0.401-0.781-0.516-0.942l1.304,0.15l-0.001,0.001L8.57,90.848l-0.414-0.89l0.003-0.001
		c0.67-0.151,1.304-0.176,1.982-0.05c0.335,0.069,0.671,0.188,0.985,0.368c0.153,0.092,0.307,0.197,0.459,0.345
		c0.176,0.163,0.185,0.193,0.348,0.395c0.395,0.639,0.526,1.216,0.687,1.816c0.146,0.595,0.255,1.189,0.347,1.784
		c0.355,2.379,0.461,4.762,0.482,7.141c0.015,4.757-0.322,9.495-0.807,14.212c-0.159,1.177-0.251,2.364-0.466,3.533
		c-0.189,1.173-0.391,2.344-0.657,3.503c-0.227,1.167-0.548,2.312-0.835,3.465c-0.338,1.139-0.634,2.291-1.015,3.417
		c-0.352,1.136-0.758,2.253-1.162,3.372c-0.428,1.11-0.865,2.216-1.339,3.308c-0.933,2.195-1.949,4.337-3.171,6.427l0,0.001
		l-0.116-0.666L78.723,199.367z"/>
</g>
<g>
	<path fill="#F1F2F2" d="M185.958,189.748c7.745-54.216,8.482-97,7.376-137.57c-28.399-10.327-62.331-18.441-104.007-20.654
		c-1.844,76.346-3.688,116.917-9.958,170.027C125.471,198.232,150.551,195.281,185.958,189.748z"/>
	<path fill="#231F20" d="M185.868,189.659l1.997-17.051c0.366-2.852,0.584-5.717,0.859-8.576l0.823-8.575l0.413-4.286l0.311-4.297
		l0.616-8.592c0.209-2.864,0.424-5.726,0.538-8.596l0.44-8.601c0.149-2.867,0.31-5.733,0.364-8.604l0.244-8.608l0.122-4.304
		l0.039-4.306l0.064-8.611c0.047-2.87,0.028-5.741,0.003-8.611l-0.057-8.612c-0.005-2.871-0.11-5.741-0.16-8.612l-0.189-8.611
		l0.684,0.949l-6.272-2.153c-2.098-0.696-4.165-1.486-6.29-2.096l-6.341-1.94l-3.167-0.981l-3.198-0.875l-6.401-1.733
		c-2.126-0.609-4.281-1.102-6.437-1.593l-6.462-1.495c-2.147-0.534-4.325-0.916-6.496-1.337l-6.515-1.25
		c-2.166-0.451-4.356-0.764-6.542-1.096l-6.558-1.009l-3.279-0.511l-3.296-0.386l-6.592-0.773c-2.199-0.241-4.391-0.563-6.601-0.697
		l-13.24-1.043l0.695-0.643L88.49,74.116c-0.123,3.548-0.19,7.097-0.36,10.644l-0.496,10.64c-0.348,7.092-0.591,14.189-0.892,21.283
		c-0.168,3.546-0.232,7.098-0.486,10.64l-0.664,10.632l-1.318,21.269c-0.174,3.549-0.53,7.083-0.869,10.619l-1.024,10.606
		l-2.128,21.207l-0.95-0.994l26.729-2.045c2.227-0.173,4.457-0.32,6.678-0.553l6.669-0.641l13.343-1.253
		c2.225-0.196,4.45-0.398,6.666-0.678l6.655-0.775l13.313-1.551c2.222-0.234,4.431-0.578,6.647-0.862l6.644-0.894L185.868,189.659z
		 M185.973,189.847l-13.237,2.161l-6.622,1.067c-2.21,0.341-4.411,0.744-6.628,1.035l-13.299,1.774l-6.651,0.887
		c-2.215,0.317-4.438,0.557-6.662,0.79l-13.345,1.402l-6.674,0.687c-2.223,0.249-4.453,0.411-6.681,0.599l-26.742,2.193
		c-0.487,0.04-0.914-0.323-0.954-0.81c-0.004-0.054-0.004-0.108,0.001-0.161l0.003-0.024l2.241-21.165l1.16-10.58
		c0.399-3.526,0.815-7.05,1.05-10.59l1.692-21.221l0.842-10.613c0.278-3.538,0.368-7.088,0.561-10.631
		c0.324-7.091,0.705-14.179,0.981-21.272l0.44-10.638c0.151-3.546,0.199-7.096,0.303-10.644l0.915-42.583l0-0.006
		c0.008-0.36,0.306-0.646,0.666-0.638l0.028,0.001l13.298,0.867c2.22,0.105,4.424,0.398,6.636,0.611l6.631,0.687l3.316,0.344
		l3.3,0.469l6.599,0.956c2.2,0.32,4.403,0.621,6.583,1.061l6.558,1.216c2.185,0.41,4.378,0.781,6.54,1.304l6.508,1.463
		c2.171,0.481,4.342,0.962,6.485,1.562l6.451,1.704l3.223,0.861l3.193,0.967l6.379,1.957c2.137,0.619,4.216,1.418,6.324,2.124
		l6.305,2.182c0.413,0.143,0.675,0.526,0.684,0.939l0,0.01l0.169,8.628c0.043,2.876,0.142,5.751,0.14,8.628l0.037,8.631
		c0.015,2.877,0.038,5.754-0.032,8.631l-0.16,8.63l-0.087,4.315l-0.17,4.313l-0.341,8.625c-0.087,2.876-0.28,5.747-0.461,8.618
		l-0.537,8.614c-0.155,2.873-0.43,5.737-0.689,8.602l-0.773,8.595l-0.39,4.296l-0.492,4.288l-0.987,8.573
		c-0.35,2.854-0.644,5.716-1.085,8.556l-2.457,17.069C186.051,189.806,186.016,189.84,185.973,189.847z"/>
</g>
<g>
	<path fill="#BE1E2D" d="M114.061,132.033c7.269-6.854,16.407-2.077,17.653,7.684C131.714,140.132,117.799,138.055,114.061,132.033z
		"/>
	<path fill="#75131C" d="M114.015,132.025l1.142-1.081c0.371-0.354,0.836-0.616,1.262-0.92c0.42-0.328,0.924-0.489,1.387-0.741
		c0.458-0.271,0.995-0.34,1.494-0.509c0.502-0.177,1.044-0.165,1.566-0.255c0.527-0.057,1.062,0.003,1.593,0.023
		c0.523,0.089,1.044,0.209,1.556,0.34c0.491,0.2,0.999,0.368,1.454,0.633c0.439,0.294,0.931,0.502,1.316,0.865
		c0.397,0.342,0.829,0.64,1.161,1.047c0.359,0.376,0.738,0.733,1.024,1.169c0.307,0.418,0.63,0.823,0.878,1.278
		c0.262,0.446,0.552,0.879,0.739,1.363c0.201,0.476,0.473,0.927,0.611,1.429c0.152,0.495,0.36,0.978,0.471,1.486L132,139.68
		l0.002,0.009l0,0.029c0.001,0.078-0.049,0.186-0.112,0.237c-0.032,0.025-0.048,0.033-0.075,0.047
		c-0.061,0.029-0.077,0.028-0.101,0.035c-0.054,0.013-0.081,0.014-0.117,0.018l-0.181,0.008l-0.329-0.008l-0.633-0.051
		c-0.418-0.043-0.833-0.097-1.245-0.165c-0.824-0.134-1.641-0.296-2.454-0.482c-1.625-0.368-3.23-0.841-4.784-1.455
		c-1.557-0.606-3.064-1.358-4.466-2.28c-1.381-0.939-2.676-2.096-3.475-3.571L114.015,132.025z M114.116,132.04
		c0.967,1.324,2.292,2.305,3.684,3.114c1.401,0.832,2.915,1.46,4.445,2.026c1.537,0.553,3.103,1.032,4.688,1.444
		c0.793,0.204,1.592,0.386,2.395,0.539c0.402,0.074,0.803,0.151,1.205,0.21l0.599,0.077l0.29,0.021l0.129,0.001l0.036-0.002
		c0,0,0.011-0.003-0.027,0.013c-0.016,0.009-0.019,0.012-0.041,0.03c-0.057,0.04-0.1,0.136-0.093,0.203l0.002,0.037l-0.221-1.498
		c-0.071-0.502-0.24-0.98-0.358-1.473c-0.105-0.499-0.334-0.955-0.513-1.43c-0.172-0.481-0.446-0.91-0.693-1.353
		c-0.224-0.46-0.552-0.851-0.869-1.247c-0.293-0.417-0.674-0.754-1.035-1.109c-0.35-0.368-0.793-0.623-1.197-0.92
		c-0.393-0.317-0.881-0.478-1.311-0.724c-0.446-0.221-0.94-0.324-1.396-0.513c-0.481-0.108-0.967-0.209-1.453-0.281
		c-0.493,0.006-0.985-0.095-1.478-0.047c-0.487,0.072-0.995,0.04-1.47,0.195c-0.475,0.143-0.977,0.204-1.43,0.421
		c-0.452,0.207-0.957,0.326-1.371,0.607c-0.423,0.266-0.886,0.469-1.301,0.773L114.116,132.04z"/>
</g>
<g>
	<path fill="#231F20" d="M182.085,138.482c0,0-0.315,0.145-0.907,0.417c-0.586,0.284-1.469,0.639-2.607,1.093
		c-1.139,0.439-2.534,0.944-4.165,1.433c-0.811,0.264-1.683,0.511-2.606,0.759c-0.92,0.271-1.898,0.502-2.924,0.725
		c-1.023,0.245-2.095,0.465-3.21,0.668c-1.112,0.228-2.269,0.421-3.463,0.598c-1.192,0.202-2.424,0.339-3.685,0.473
		c-1.26,0.157-2.553,0.261-3.87,0.34c-1.317,0.108-2.658,0.152-4.017,0.187c-1.36,0.063-2.736,0.04-4.125,0.016
		c-1.39-0.001-2.789-0.059-4.193-0.152l-2.111-0.127l-2.108-0.211c-1.408-0.135-2.817-0.273-4.206-0.507
		c-1.391-0.221-2.79-0.383-4.152-0.674c-1.379-0.272-2.747-0.541-4.099-0.807c-1.262-0.226-2.723-0.581-4.017-0.973
		c-2.619-0.792-5.092-1.799-7.304-3.015c-2.225-1.192-4.189-2.575-5.879-3.985c-1.675-1.434-3.078-2.891-4.183-4.294
		c-1.112-1.397-1.919-2.736-2.524-3.859c-0.578-1.145-0.959-2.072-1.14-2.742c-0.097-0.329-0.16-0.587-0.185-0.765
		c-0.027-0.181-0.014-0.273-0.014-0.273c-0.016,0.014,0.214,0.283,0.706,0.723c0.499,0.433,1.212,1.064,2.174,1.786
		c0.927,0.749,2.12,1.57,3.463,2.48c1.348,0.907,2.891,1.865,4.599,2.828c1.699,0.98,3.594,1.918,5.61,2.868
		c2.026,0.932,4.206,1.82,6.511,2.646c0.578,0.222,1.148,0.411,1.723,0.601c0.549,0.2,1.217,0.406,1.845,0.608
		c1.185,0.347,2.523,0.621,3.795,0.949c1.285,0.342,2.607,0.557,3.924,0.833c1.317,0.281,2.649,0.5,3.984,0.712l2.002,0.327
		l2.009,0.245c0.669,0.085,1.337,0.17,2.003,0.254c0.668,0.062,1.335,0.124,1.998,0.185c1.328,0.128,2.649,0.236,3.957,0.293
		c1.307,0.082,2.601,0.155,3.875,0.161c1.274,0.029,2.529,0.063,3.757,0.034c1.23,0,2.433-0.027,3.603-0.084
		c1.173-0.031,2.314-0.083,3.415-0.173c1.104-0.066,2.17-0.154,3.189-0.272c1.023-0.096,2.001-0.213,2.93-0.335
		c0.932-0.11,1.816-0.225,2.64-0.367c1.658-0.246,3.091-0.543,4.276-0.767c1.177-0.247,2.108-0.459,2.738-0.625
		C181.748,138.565,182.085,138.482,182.085,138.482z"/>
</g>
<g>
	<polygon fill="#414042" points="84.808,65.179 13.164,98.65 13.164,100.586 83.702,77.35 	"/>
	<path fill="#231F20" d="M84.764,65.242c-2.945,1.429-5.879,2.879-8.832,4.29l-8.929,4.241c-5.957,2.817-11.89,5.686-17.882,8.43
		l-17.975,8.23c-2.99,1.385-6.002,2.722-8.973,4.146l-8.932,4.233l0.103-0.162l0.011,1.936l-0.25-0.181l17.59-5.942l17.613-5.873
		l17.648-5.767l17.682-5.664l-0.136,0.171C83.889,73.299,84.34,69.272,84.764,65.242z M84.845,65.182
		c-0.312,4.062-0.596,8.127-0.945,12.186c-0.007,0.081-0.064,0.147-0.136,0.172l-17.586,5.954l-17.62,5.851l-17.655,5.745
		l-17.678,5.676c-0.099,0.033-0.207-0.02-0.24-0.119c-0.006-0.019-0.01-0.042-0.01-0.061l0.011-1.936
		c0-0.071,0.043-0.134,0.104-0.163l8.979-4.134c2.999-1.366,5.957-2.817,8.938-4.222l17.847-8.505
		c5.949-2.835,11.957-5.544,17.94-8.306l8.982-4.127c2.997-1.369,6.013-2.698,9.019-4.049c0.019-0.009,0.041,0,0.05,0.019
		C84.845,65.17,84.846,65.176,84.845,65.182z"/>
</g>
<path fill="#6D6E71" d="M193.795,75.414l0.645-9.22c0,0-16.136-6.547-41.861-9.313c-25.725-2.766-66.388-1.383-66.388-1.383
	l0.83,6.639c0,0,52.834,9.405,74.41,11.895C183.007,76.52,193.795,75.414,193.795,75.414z"/>
<g>
	<path fill="#414042" d="M162.537,70.25c25.146,3.509,35.13,2.674,35.13,2.674s0.553,4.979,0.277,24.342
		c-0.277,19.363-0.83,26.775-0.83,26.775s-20.193,6.362-26.832-1.936s-5.532-10.455-10.511-11.008
		c-4.979-0.553-7.192,4.149-14.661,9.682c-7.469,5.532-28.492,1.936-43.705-3.043s-17.98-16.044-17.98-16.044l1.106-41.216
		c0,0-0.83-3.873,3.873-3.596C93.107,57.157,126.854,65.271,162.537,70.25z"/>
	<path fill="#231F20" d="M162.557,70.102l8.751,1.082l4.388,0.391c1.463,0.119,2.921,0.291,4.39,0.343l4.397,0.231l4.396,0.123
		c1.464,0.035,2.927,0.01,4.388,0.013l2.185-0.068c0.717-0.035,1.464-0.072,2.144-0.138L198.414,72l0.098,0.831
		c0.131,1.114,0.184,2.17,0.262,3.244c0.081,1.073,0.147,2.145,0.181,3.211c0.085,2.136,0.193,4.275,0.236,6.412l0.069,6.405
		l0.004,3.203l-0.013,3.208c-0.019,2.131-0.065,4.261-0.116,6.391c-0.057,2.132-0.071,4.256-0.166,6.396l-0.279,6.407
		c-0.118,2.143-0.248,4.258-0.431,6.42l-0.068,0.806l-0.731,0.203c-2.745,0.761-5.458,1.292-8.239,1.666
		c-2.772,0.361-5.582,0.539-8.402,0.349c-2.801-0.202-5.687-0.745-8.207-2.242c-1.246-0.729-2.367-1.803-3.171-2.945
		c-0.833-1.081-1.658-2.224-2.43-3.368c-0.777-1.146-1.503-2.329-2.24-3.479c-0.74-1.142-1.461-2.303-2.54-2.884
		c-0.529-0.31-1.168-0.452-1.808-0.578c-0.659-0.108-1.309-0.183-1.937-0.129c-1.276,0.103-2.463,0.688-3.534,1.473
		c-2.134,1.602-4.047,3.63-6.134,5.44c-1.037,0.917-2.11,1.798-3.213,2.64c-0.316,0.246-0.577,0.401-0.869,0.605
		c-0.306,0.185-0.643,0.365-0.966,0.539c-0.65,0.307-1.311,0.579-1.987,0.804c-2.71,0.884-5.526,1.144-8.308,1.248
		c-2.789,0.074-5.569-0.07-8.331-0.335c-5.526-0.537-10.988-1.536-16.371-2.852c-2.697-0.676-5.34-1.41-8.024-2.267
		c-2.648-0.853-5.331-2.024-7.755-3.529c-2.443-1.505-4.684-3.38-6.576-5.582c-0.95-1.098-1.803-2.283-2.553-3.54
		c-0.371-0.631-0.716-1.28-1.027-1.952c-0.314-0.694-0.582-1.317-0.825-2.17l-0.047-0.166l0.004-0.227l0.198-10.306l0.216-10.306
		l0.267-10.304l0.328-10.303l0.034,0.367c-0.075-0.412-0.082-0.638-0.086-0.955c0.001-0.296,0.025-0.596,0.079-0.901
		c0.103-0.607,0.344-1.251,0.758-1.815c0.412-0.566,0.987-1.003,1.567-1.27c0.582-0.274,1.16-0.401,1.702-0.462
		c0.567-0.056,1.003-0.059,1.607-0.012l1.273,0.161c0.882,0.15,1.798,0.307,2.619,0.477c3.365,0.674,6.688,1.383,10.01,2.125
		l19.912,4.462c6.642,1.46,13.303,2.837,19.979,4.144l5.019,0.914l5.026,0.873C155.83,69.102,159.195,69.591,162.557,70.102z
		 M162.517,70.399c-3.369-0.474-6.743-0.927-10.106-1.448c-3.372-0.464-6.733-0.994-10.101-1.492
		c-6.738-0.979-13.461-2.064-20.182-3.169c-6.72-1.109-13.433-2.269-20.122-3.516c-3.346-0.607-6.686-1.276-10.01-1.846
		c-0.849-0.158-1.614-0.257-2.409-0.392c-0.405-0.058-0.84-0.097-1.259-0.146c-0.244-0.014-0.661-0.015-0.94,0.024
		c-0.623,0.079-0.987,0.291-1.143,0.526c-0.086,0.126-0.16,0.296-0.195,0.527c-0.018,0.114-0.027,0.239-0.025,0.368
		c-0.003,0.108,0.023,0.308,0.026,0.314l0.04,0.098l-0.006,0.269L85.86,70.824l-0.286,10.304L85.237,91.43l-0.355,10.302
		l-0.043-0.392c0.126,0.471,0.375,1.127,0.626,1.684c0.258,0.578,0.551,1.148,0.868,1.706c0.643,1.112,1.385,2.176,2.22,3.168
		c1.661,1.994,3.667,3.709,5.872,5.131c2.218,1.444,4.579,2.555,7.139,3.451c2.532,0.875,5.168,1.679,7.786,2.402
		c5.253,1.449,10.587,2.657,15.985,3.372c2.698,0.361,5.412,0.576,8.12,0.594c2.698-0.014,5.426-0.186,7.98-0.933
		c0.635-0.19,1.255-0.418,1.852-0.69c0.283-0.149,0.558-0.285,0.843-0.448c0.274-0.185,0.606-0.382,0.832-0.557
		c1.096-0.805,2.164-1.65,3.202-2.536c2.109-1.738,3.968-3.752,6.25-5.435c1.138-0.828,2.509-1.504,3.995-1.621
		c0.746-0.069,1.471,0.013,2.167,0.121c0.702,0.132,1.431,0.283,2.102,0.662c0.673,0.362,1.234,0.895,1.693,1.453
		c0.447,0.565,0.84,1.147,1.215,1.725c0.747,1.162,1.501,2.295,2.291,3.408c0.794,1.115,1.605,2.182,2.475,3.257
		c0.804,1.088,1.755,1.909,2.907,2.532c2.286,1.239,4.981,1.655,7.639,1.733c2.674,0.071,5.368-0.209,8.029-0.662
		c2.651-0.46,5.322-1.099,7.844-1.908l-0.799,1.008c0.049-1.045,0.082-2.103,0.108-3.167l0.101-3.182l0.14-6.371l0.27-12.777
		l0.06-3.183l0.044-3.19l0.148-6.38l0.067-6.372c0.024-1.065,0.016-2.123-0.005-3.178c-0.018-1.054-0.016-2.129-0.079-3.138
		l0.914,0.752c-0.787,0.03-1.51,0.021-2.262,0.014l-2.224-0.061c-1.477-0.086-2.954-0.144-4.425-0.262l-4.408-0.372l-4.393-0.479
		c-1.464-0.152-2.925-0.333-4.386-0.511l-4.381-0.533L162.517,70.399z"/>
</g>
<g>
	<g>
		<path fill="#A7A9AC" d="M197.576,77.8c-2.581-0.551-20.101-1.469-23.051-2.02c-2.95-0.551-5.717,2.203-6.27,6.059
			c0,0-3.319,14.689-4.057,20.932c-0.738,6.243,2.767,7.528,7.562,11.568c4.794,4.039,21.391,2.203,23.419,1.836
			c2.028-0.367,5.532-0.184,5.717-2.387c0.185-2.203,0.922-34.335,0.922-34.335S200.157,78.351,197.576,77.8z"/>
		<path fill="#231F20" d="M197.567,77.849l-4.085-0.419c-1.365-0.102-2.729-0.2-4.095-0.276l-8.201-0.445
			c-1.367-0.065-2.736-0.143-4.114-0.28l-2.063-0.197l-1-0.1c-0.314-0.01-0.583,0.004-0.898,0.065
			c-1.222,0.233-2.26,1.086-3.019,2.11c-0.753,1.046-1.217,2.3-1.418,3.592l-0.003,0.02l-0.003,0.013l-1.41,6.148
			c-0.486,2.047-0.906,4.106-1.352,6.161c-0.211,1.03-0.464,2.053-0.64,3.088l-0.519,3.107c-0.146,1.037-0.406,2.07-0.459,3.111
			c-0.066,1.038-0.015,2.078,0.269,3.072c0.557,2.017,2.168,3.496,3.814,4.753l2.506,1.92c0.412,0.308,0.836,0.695,1.231,0.952
			c0.442,0.283,0.878,0.603,1.347,0.756c1.847,0.791,3.962,1.089,6.018,1.289c2.074,0.192,4.169,0.208,6.258,0.152
			c2.091-0.049,4.182-0.179,6.264-0.382c1.036-0.1,2.092-0.219,3.088-0.383c1.09-0.19,2.133-0.241,3.121-0.433
			c0.964-0.186,1.941-0.537,2.118-1.238l0.05-0.27l0.011-0.394l0.023-0.789l0.046-1.577l0.184-6.309
			c0.051-2.104,0.149-4.205,0.232-6.307c0.08-2.102,0.173-4.203,0.285-6.304c0.198-4.202,0.444-8.402,0.576-12.607l0.04,0.079
			c-0.312-0.205-0.658-0.366-0.99-0.546c-0.337-0.172-0.696-0.298-1.043-0.449c-0.177-0.068-0.346-0.157-0.529-0.207l-0.546-0.158
			L197.567,77.849z M197.585,77.751l1.108,0.3l0.554,0.15c0.185,0.048,0.358,0.134,0.537,0.2c0.353,0.147,0.718,0.268,1.062,0.437
			c0.341,0.177,0.69,0.332,1.019,0.541l0.041,0.026l-0.001,0.053c-0.094,4.208-0.074,8.421-0.101,12.633
			c-0.001,2.106-0.021,4.212-0.054,6.316c-0.03,2.105-0.045,4.21-0.107,6.313l-0.155,6.311l-0.039,1.578l-0.019,0.789l-0.01,0.394
			c-0.02,0.185-0.055,0.338-0.088,0.507c-0.179,0.688-0.752,1.196-1.287,1.461c-0.547,0.281-1.104,0.416-1.647,0.517
			c-1.082,0.194-2.149,0.236-3.135,0.398c-1.081,0.165-2.12,0.267-3.179,0.358c-2.109,0.181-4.222,0.287-6.339,0.312
			c-2.116,0.018-4.238-0.046-6.351-0.283c-2.112-0.249-4.219-0.611-6.224-1.538c-0.529-0.207-0.936-0.531-1.371-0.828
			c-0.475-0.335-0.817-0.678-1.238-1.011l-2.453-1.987c-0.811-0.675-1.624-1.366-2.324-2.18c-0.7-0.809-1.261-1.766-1.543-2.809
			c-0.292-1.038-0.318-2.13-0.259-3.186c0.041-1.065,0.286-2.089,0.419-3.137c0.309-2.086,0.638-4.169,1.029-6.237
			c0.377-2.072,0.728-4.15,1.149-6.213c0.406-2.066,0.799-4.135,1.261-6.191l-0.006,0.033c0.205-1.413,0.695-2.799,1.534-3.99
			c0.829-1.181,2.094-2.151,3.59-2.418c0.358-0.067,0.777-0.08,1.145-0.053l1.041,0.126l2.021,0.231
			c1.342,0.178,2.701,0.326,4.066,0.447l8.18,0.791l4.093,0.358L197.585,77.751z"/>
	</g>
	<g>
		<path fill="#A7A9AC" d="M150.703,73.017c-4.979-0.737-30.764-5.348-41.46-5.532s-16.782-0.737-18.811,0.553
			c-2.029,1.291-3.135,17.519-2.213,25.449s2.912,10.605,9.958,13.462c6.823,2.766,14.58,4.447,25.633,5.348
			c15.86,1.291,21.392,1.66,24.159-0.368c4.54-3.329,7.745-4.795,8.667-8.299c1.032-3.923,0.368-16.966-0.031-20.654
			C156.187,79.121,155.682,73.754,150.703,73.017z"/>
		<path fill="#231F20" d="M150.696,73.066c0,0-3.102-0.487-8.529-1.34c-2.71-0.447-6.017-0.888-9.804-1.426
			c-1.896-0.247-3.914-0.509-6.041-0.786c-2.129-0.25-4.368-0.512-6.704-0.786c-4.686-0.509-9.715-0.851-15.132-0.924
			c-2.697-0.07-5.468-0.193-8.286-0.225c-1.404,0-2.838,0.006-4.216,0.246c-0.343,0.064-0.673,0.154-0.988,0.27
			c-0.132,0.064-0.326,0.158-0.403,0.202c-0.168,0.126-0.212,0.221-0.295,0.336c-0.333,0.572-0.546,1.278-0.731,1.974
			c-0.696,2.825-1.022,5.815-1.246,8.825c-0.208,3.015-0.329,6.079-0.252,9.163c0.078,3.076,0.34,6.199,1.101,9.206
			c0.401,1.493,0.997,2.941,1.91,4.173c0.93,1.22,2.161,2.179,3.5,2.946c1.339,0.761,2.785,1.399,4.23,1.917
			c1.484,0.508,2.966,1.015,4.445,1.521c1.494,0.437,3.009,0.754,4.504,1.136c1.485,0.415,3.017,0.636,4.536,0.879
			c1.522,0.224,3.021,0.544,4.538,0.71c1.518,0.156,3.029,0.312,4.53,0.467c2.994,0.346,5.993,0.51,8.921,0.74
			c2.933,0.201,5.816,0.416,8.63,0.51c1.405,0.037,2.797,0.063,4.15-0.029c1.343-0.097,2.687-0.261,3.803-0.794
			c0.289-0.117,0.534-0.293,0.791-0.452l0.82-0.582c0.546-0.382,1.087-0.762,1.625-1.139c1.087-0.749,2.133-1.476,3.118-2.235
			c0.929-0.794,1.863-1.591,2.38-2.617c0.173-0.233,0.265-0.503,0.362-0.77c0.086-0.258,0.232-0.544,0.272-0.776
			c0.103-0.591,0.205-1.177,0.307-1.756c0.417-4.576,0.339-8.958,0.238-12.756c-0.143-3.813-0.291-7.159-0.841-9.84
			c-0.288-1.333-0.706-2.493-1.268-3.387c-0.555-0.901-1.256-1.499-1.879-1.864C151.51,73.099,150.677,73.109,150.696,73.066z
			 M150.711,72.967c-0.018,0.045,0.824,0.021,2.144,0.726c0.642,0.366,1.371,0.973,1.949,1.888c0.586,0.909,1.024,2.084,1.331,3.429
			c0.559,2.706,0.857,6.039,1.096,9.862c0.116,1.912,0.224,3.948,0.264,6.1c0.06,2.153,0.055,4.406-0.134,6.827
			c-0.09,0.582-0.182,1.17-0.274,1.764c-0.062,0.36-0.201,0.62-0.3,0.938c-0.106,0.306-0.21,0.615-0.396,0.885
			c-0.585,1.192-1.588,2.078-2.557,2.937c-1.006,0.818-2.082,1.562-3.151,2.304c-0.534,0.377-1.073,0.757-1.615,1.139l-0.811,0.579
			c-0.309,0.199-0.616,0.411-0.954,0.552c-1.335,0.633-2.768,0.792-4.17,0.903c-1.411,0.101-2.824,0.077-4.25,0.044
			c-2.849-0.086-5.741-0.284-8.677-0.523c-2.937-0.255-5.916-0.442-8.938-0.815c-1.51-0.168-3.029-0.337-4.556-0.507
			c-1.525-0.183-3.042-0.506-4.571-0.766c-1.528-0.272-3.065-0.522-4.575-0.971c-1.512-0.414-3.051-0.767-4.547-1.234
			c-1.47-0.532-2.943-1.065-4.418-1.599c-1.494-0.567-2.921-1.228-4.298-2.04c-1.364-0.815-2.64-1.845-3.592-3.145
			c-0.937-1.312-1.519-2.825-1.902-4.351c-0.753-3.068-0.99-6.198-1.049-9.293c-0.063-3.095-0.001-6.167,0.19-9.195
			c0.218-3.026,0.445-6.02,1.095-8.93c0.178-0.726,0.364-1.448,0.749-2.15c0.116-0.189,0.283-0.396,0.409-0.489
			c0.223-0.156,0.367-0.21,0.556-0.311c0.364-0.145,0.731-0.252,1.098-0.329c1.468-0.288,2.914-0.321,4.338-0.354
			c2.847-0.046,5.617,0.046,8.313,0.107c2.693,0.063,5.315,0.066,7.87,0.269c1.278,0.057,2.521,0.198,3.741,0.337
			c1.22,0.134,2.417,0.266,3.59,0.396c4.676,0.613,8.94,1.306,12.718,1.921c3.772,0.644,7.061,1.205,9.769,1.667
			C147.615,72.448,150.711,72.967,150.711,72.967z"/>
	</g>
</g>
<g>
	<path opacity="0.8" fill="#F1F2F2" d="M196.91,80.916c-1.1-0.235-6.961-0.659-11.241-0.969c-6.289-0.456-10.216-0.753-11.73-1.035
		c-0.056-0.011-0.112-0.016-0.169-0.016c-0.766,0-2.048,1.209-2.362,3.396l-0.017,0.126l-0.028,0.124
		c-0.034,0.145-3.291,14.596-4.001,20.603c-0.399,3.368,0.615,4.157,3.974,6.772c0.774,0.602,1.604,1.25,2.476,1.984
		c0.507,0.427,2.777,1.821,10.694,1.821c4.815,0,15.528-1.152,16.005-1.242c0.163-4.06,0.55-19.662,0.818-31.207
		C200.859,81.094,197.549,81.053,196.91,80.916z"/>
	<path opacity="0.8" fill="#F1F2F2" d="M153.418,83.14c-0.494-4.568-1.071-6.659-3.181-6.971c-0.939-0.139-2.609-0.414-4.776-0.771
		c-9.025-1.487-27.804-4.582-36.272-4.727c-2.393-0.041-4.557-0.1-6.496-0.154c-2.373-0.065-4.422-0.122-6.104-0.122
		c-2.318,0-3.467,0.12-4.016,0.221c-1.064,3.164-2.034,15.21-1.186,22.503c0.784,6.741,2.054,8.47,7.99,10.877
		c6.646,2.694,14.263,4.275,24.694,5.124c7.791,0.634,13.164,1.05,16.731,1.05c2.81,0,4.539-0.266,5.285-0.812
		c0.964-0.707,1.869-1.332,2.708-1.91c3.003-2.074,4.348-3.056,4.762-4.628c0.817-3.106,0.339-15.287-0.118-19.5L153.418,83.14z"/>
</g>
<g>
	<radialGradient id="SVGID_1_" cx="75.1266" cy="77.0735" r="142.9067" gradientUnits="userSpaceOnUse">
		<stop  offset="0.0056" style="stop-color:#DEE3E6"/>
		<stop  offset="0.2528" style="stop-color:#FFFDE5"/>
		<stop  offset="0.3953" style="stop-color:#F0ECD8"/>
		<stop  offset="0.5955" style="stop-color:#D6CDC1"/>
		<stop  offset="0.7865" style="stop-color:#EDEDEE"/>
		<stop  offset="1" style="stop-color:#D8D5BB"/>
	</radialGradient>
	<path fill="url(#SVGID_1_)" d="M153.418,83.14c-0.494-4.568-1.071-6.659-3.181-6.971c-0.939-0.139-2.609-0.414-4.776-0.771
		c-9.025-1.487-27.804-4.582-36.272-4.727c-2.393-0.041-4.557-0.1-6.496-0.154c-2.373-0.065-4.422-0.122-6.104-0.122
		c-2.318,0-3.467,0.12-4.016,0.221c-1.064,3.164-2.034,15.21-1.186,22.503c0.784,6.741,2.054,8.47,7.99,10.877
		c6.646,2.694,14.263,4.275,24.694,5.124c7.791,0.634,13.164,1.05,16.731,1.05c2.81,0,4.539-0.266,5.285-0.812
		c0.964-0.707,1.869-1.332,2.708-1.91c3.003-2.074,4.348-3.056,4.762-4.628c0.817-3.106,0.339-15.287-0.118-19.5L153.418,83.14z"/>
	<radialGradient id="SVGID_2_" cx="75.1276" cy="77.0735" r="142.9052" gradientUnits="userSpaceOnUse">
		<stop  offset="0.0056" style="stop-color:#DEE3E6"/>
		<stop  offset="0.2528" style="stop-color:#FFFDE5"/>
		<stop  offset="0.3953" style="stop-color:#F0ECD8"/>
		<stop  offset="0.5955" style="stop-color:#D6CDC1"/>
		<stop  offset="0.7865" style="stop-color:#EDEDEE"/>
		<stop  offset="1" style="stop-color:#D8D5BB"/>
	</radialGradient>
	<path fill="url(#SVGID_2_)" d="M196.91,80.916c-1.1-0.235-6.961-0.659-11.241-0.969c-6.289-0.456-10.216-0.753-11.73-1.035
		c-0.056-0.011-0.112-0.016-0.169-0.016c-0.766,0-2.048,1.209-2.362,3.396l-0.017,0.126l-0.028,0.124
		c-0.034,0.145-3.291,14.596-4.001,20.603c-0.399,3.368,0.615,4.157,3.974,6.772c0.774,0.602,1.604,1.25,2.476,1.984
		c0.507,0.427,2.777,1.821,10.694,1.821c4.815,0,15.528-1.152,16.005-1.242c0.163-4.06,0.55-19.662,0.818-31.207
		C200.859,81.094,197.549,81.053,196.91,80.916z"/>
</g>
<g>
	<path fill="#E6E7E8" stroke="#231F20" stroke-width="0.9978" stroke-miterlimit="15" d="M153.418,83.14
		c-0.494-4.568-1.071-6.659-3.181-6.971c-0.939-0.139-2.609-0.414-4.776-0.771c-9.025-1.487-27.804-4.582-36.272-4.727
		c-2.393-0.041-4.557-0.1-6.496-0.154c-2.373-0.065-4.422-0.122-6.104-0.122c-2.318,0-3.467,0.12-4.016,0.221
		c-1.064,3.164-2.034,15.21-1.186,22.503c0.784,6.741,2.054,8.47,7.99,10.877c6.646,2.694,14.263,4.275,24.694,5.124
		c7.791,0.634,13.164,1.05,16.731,1.05c2.81,0,4.539-0.266,5.285-0.812c0.964-0.707,1.869-1.332,2.708-1.91
		c3.003-2.074,4.348-3.056,4.762-4.628c0.817-3.106,0.339-15.287-0.118-19.5L153.418,83.14z"/>
	<path fill="#E6E7E8" stroke="#231F20" stroke-width="0.9978" stroke-miterlimit="15" d="M196.91,80.916
		c-1.1-0.235-6.961-0.659-11.241-0.969c-6.289-0.456-10.216-0.753-11.73-1.035c-0.056-0.011-0.112-0.016-0.169-0.016
		c-0.766,0-2.048,1.209-2.362,3.396l-0.017,0.126l-0.028,0.124c-0.034,0.145-3.291,14.596-4.001,20.603
		c-0.399,3.368,0.615,4.157,3.974,6.772c0.774,0.602,1.604,1.25,2.476,1.984c0.507,0.427,2.777,1.821,10.694,1.821
		c4.815,0,15.528-1.152,16.005-1.242c0.163-4.06,0.55-19.662,0.818-31.207C200.859,81.094,197.549,81.053,196.91,80.916z"/>
</g>
<g opacity="0.3">
	<path fill="#231F20" d="M92.571,72.429c0.549-0.1,1.698-0.221,4.016-0.221c1.683,0,3.732,0.057,6.104,0.122
		c1.94,0.053,4.103,0.113,6.496,0.154c8.468,0.146,27.248,3.241,36.272,4.727c2.166,0.357,3.837,0.632,4.776,0.772
		c2.11,0.312,2.687,2.403,3.181,6.971l0.019,0.178c0.256,2.363,0.519,7.23,0.556,11.599c0.036-4.757-0.264-10.716-0.556-13.413
		l-0.019-0.178c-0.494-4.568-1.071-6.659-3.181-6.971c-0.939-0.139-2.609-0.414-4.776-0.771c-9.025-1.487-27.804-4.582-36.272-4.727
		c-2.393-0.041-4.557-0.1-6.496-0.154c-2.373-0.065-4.422-0.122-6.104-0.122c-2.318,0-3.467,0.12-4.016,0.221
		c-0.814,2.42-1.569,10.033-1.502,16.744C91.137,81.145,91.83,74.633,92.571,72.429z"/>
	<path fill="#231F20" d="M167.362,104.959c0.71-6.007,3.968-20.458,4.001-20.603l0.028-0.124l0.017-0.126
		c0.314-2.186,1.596-3.396,2.362-3.396c0.056,0,0.112,0.005,0.169,0.016c1.514,0.282,5.442,0.58,11.73,1.035
		c4.28,0.31,10.141,0.734,11.241,0.969c0.625,0.133,3.797,0.176,4.376,0.346c0.014-0.609,0.028-1.212,0.042-1.803
		c-0.47-0.179-3.78-0.221-4.418-0.357c-1.1-0.235-6.961-0.659-11.241-0.969c-6.289-0.456-10.216-0.753-11.73-1.035
		c-0.056-0.011-0.112-0.016-0.169-0.016c-0.766,0-2.048,1.209-2.362,3.396l-0.017,0.126l-0.028,0.124
		c-0.034,0.145-3.291,14.596-4.001,20.603c-0.099,0.837-0.11,1.514-0.021,2.101C167.351,105.145,167.35,105.064,167.362,104.959z"/>
</g>
<g>
	<path fill="#414042" d="M85.5,105.427c0,0-15.629,9.682-31.811,1.66c-10.449-5.18-8.634-28.757-3.089-42.368
		c8.114-19.916,26.924-50.897,82.616-51.267c44.272-0.293,66.388,23.974,61.224,52.742c0,0,2.527-6.797-32.456-10.327
		c-40.201-4.057-73.248,1.361-73.248,1.361S83.287,83.989,85.5,105.427z"/>
	<path fill="#231F20" d="M85.552,105.512c-2.477,1.497-5.154,2.639-7.92,3.498c-2.766,0.859-5.635,1.417-8.541,1.605
		c-2.902,0.197-5.85,0.019-8.707-0.616c-1.434-0.295-2.838-0.725-4.213-1.228c-0.685-0.26-1.368-0.525-2.03-0.84
		c-0.667-0.289-1.346-0.62-1.988-1.066c-2.552-1.749-4.12-4.512-5.081-7.286c-0.965-2.807-1.434-5.733-1.61-8.65
		c-0.335-5.844,0.297-11.679,1.546-17.363c0.634-2.842,1.441-5.651,2.484-8.388c1.065-2.708,2.227-5.363,3.51-7.972
		c2.596-5.194,5.673-10.171,9.314-14.713c1.814-2.273,3.737-4.468,5.838-6.483c2.079-2.035,4.28-3.946,6.603-5.694
		c4.611-3.544,9.677-6.459,14.969-8.811c5.288-2.376,10.836-4.102,16.461-5.407c5.63-1.297,11.362-2.105,17.113-2.54
		c5.755-0.42,11.522-0.565,17.294-0.26c5.766,0.311,11.514,1.097,17.139,2.475c5.626,1.358,11.1,3.43,16.195,6.248
		c5.051,2.871,9.743,6.532,13.402,11.133c3.712,4.543,6.359,9.968,7.695,15.698c1.388,5.735,1.326,11.736,0.359,17.511l-1.839-0.502
		c-0.041,0.12-0.015,0.055-0.023,0.054c0.002-0.016-0.001-0.042-0.002-0.07c-0.004-0.058-0.021-0.129-0.044-0.206
		c-0.055-0.155-0.135-0.33-0.259-0.504c-0.237-0.351-0.592-0.694-0.982-1.006c-0.791-0.626-1.737-1.15-2.722-1.602
		c-1.979-0.903-4.11-1.575-6.264-2.151c-4.326-1.124-8.776-1.881-13.242-2.486c-2.235-0.302-4.473-0.589-6.72-0.823
		c-2.215-0.252-4.506-0.417-6.755-0.63c-2.263-0.228-4.509-0.331-6.762-0.485c-2.249-0.166-4.51-0.242-6.768-0.334
		c-2.258-0.112-4.519-0.149-6.78-0.188c-2.26-0.062-4.522-0.05-6.783-0.046c-2.261-0.012-4.522,0.05-6.784,0.075
		c-2.262,0.021-4.521,0.132-6.782,0.193c-2.259,0.108-4.52,0.199-6.777,0.345c-2.258,0.136-4.514,0.295-6.768,0.484
		c-4.502,0.383-9.02,0.833-13.47,1.48l0.608-0.585c-0.807,3.923-1.474,7.908-2.056,11.89c-0.284,1.994-0.558,3.99-0.786,5.991
		c-0.121,1-0.239,2-0.334,3.003l-0.295,3.007c-0.165,2.007-0.343,4.014-0.455,6.026c-0.072,1.005-0.127,2.011-0.157,3.018
		l-0.108,3.021l-0.029,3.023c-0.026,1.008,0.029,2.015,0.045,3.023c0.027,1.007,0.034,2.017,0.116,3.021l0.195,3.019
		C85.603,105.454,85.581,105.492,85.552,105.512z M85.393,105.369l-0.285-2.95c-0.115-1.006-0.154-2.016-0.213-3.026
		c-0.048-1.01-0.136-2.02-0.142-3.031l-0.068-3.034l0.012-3.035c-0.002-1.012,0.021-2.024,0.061-3.035
		c0.048-2.024,0.155-4.045,0.285-6.065l0.23-3.027c0.073-1.01,0.17-2.017,0.269-3.024c0.185-2.016,0.416-4.027,0.658-6.037
		c0.498-4.021,1.075-8.02,1.808-12.025c0.056-0.309,0.301-0.536,0.595-0.583l0.014-0.002c4.519-0.729,9.029-1.232,13.56-1.682
		c2.264-0.221,4.531-0.412,6.799-0.579c2.268-0.178,4.539-0.3,6.809-0.439c2.272-0.093,4.544-0.235,6.818-0.287
		c2.274-0.062,4.548-0.147,6.824-0.133c2.275-0.011,4.55-0.029,6.825,0.026c2.275,0.033,4.55,0.064,6.824,0.17
		c2.274,0.086,4.548,0.156,6.824,0.317c2.273,0.149,4.561,0.249,6.813,0.469c2.267,0.208,4.503,0.361,6.796,0.614
		c2.265,0.233,4.53,0.503,6.789,0.822c4.516,0.647,9.024,1.445,13.473,2.637c2.221,0.613,4.43,1.322,6.573,2.318
		c1.069,0.504,2.124,1.084,3.109,1.873c0.488,0.401,0.965,0.849,1.363,1.441c0.2,0.291,0.372,0.631,0.495,1.013
		c0.058,0.195,0.103,0.401,0.12,0.627c0.007,0.114,0.011,0.228,0.001,0.354c-0.015,0.14-0.012,0.217-0.094,0.472
		c-0.16,0.502-0.697,0.779-1.199,0.618c-0.46-0.147-0.731-0.61-0.649-1.073l0.008-0.048c0.974-5.548,1.06-11.288-0.205-16.778
		c-1.206-5.491-3.662-10.711-7.177-15.129c-3.472-4.46-7.914-8.131-12.805-11.027c-4.921-2.857-10.272-4.993-15.808-6.428
		c-5.529-1.465-11.225-2.343-16.95-2.664c-2.849-0.165-5.744-0.242-8.604-0.192c-1.435,0.038-2.871,0.043-4.305,0.107l-4.299,0.254
		c-5.721,0.481-11.411,1.334-16.987,2.668c-5.582,1.308-11.022,3.202-16.192,5.639c-5.17,2.434-10.088,5.403-14.534,8.969
		c-2.24,1.759-4.355,3.674-6.346,5.706c-2.004,2.019-3.895,4.15-5.646,6.392c-3.535,4.462-6.502,9.358-9.033,14.462
		c-1.278,2.544-2.445,5.157-3.509,7.796c-1.028,2.633-1.838,5.364-2.479,8.132c-1.265,5.537-1.927,11.252-1.648,16.91
		c0.162,2.82,0.529,5.642,1.395,8.299c0.852,2.636,2.255,5.164,4.469,6.743c0.532,0.388,1.144,0.708,1.791,1.002
		c0.632,0.317,1.285,0.584,1.94,0.849c1.316,0.511,2.662,0.954,4.042,1.266c1.374,0.336,2.776,0.556,4.187,0.689
		c1.41,0.144,2.833,0.188,4.254,0.132c2.843-0.095,5.679-0.553,8.434-1.315C80.213,107.739,82.9,106.734,85.393,105.369z"/>
</g>
<path fill="#231F20" stroke="#231F20" stroke-linejoin="round" stroke-miterlimit="10" d="M88.405,56.235
	c0,0,30.98-11.248,91.651-4.425s14.755,19.916,14.202,19.732c-0.553-0.184,4.056-2.95-30.613-7.192S88.405,56.235,88.405,56.235z"/>
<g opacity="0.1">
	<path fill="#F1F2F2" d="M57.146,104.182c-7.745-9.958-2.49-44.627,29.229-67.126c22.623-16.046,63.732-17.561,89.309-10.865
		c-10.367-6.991-24.727-10.751-41.675-10.751l-0.78,0.002c-40.756,0.27-67.181,16.634-80.785,50.027
		c-5.232,12.843-7.053,35.281,2.129,39.832c2.234,1.107,4.574,1.896,6.995,2.386C59.717,106.677,58.187,105.52,57.146,104.182z"/>
</g>
<g>
	<path fill="#A7A9AC" d="M88.404,56.42c0,0,0.534-0.21,1.554-0.565c1.022-0.344,2.527-0.838,4.47-1.369
		c0.976-0.252,2.056-0.531,3.231-0.835c1.184-0.272,2.465-0.566,3.833-0.88c1.377-0.276,2.842-0.57,4.387-0.88
		c1.554-0.257,3.189-0.528,4.894-0.81c3.421-0.495,7.135-1,11.083-1.341c1.971-0.217,4.001-0.353,6.077-0.487
		c2.075-0.145,4.197-0.29,6.358-0.335c2.16-0.06,4.357-0.164,6.58-0.191c2.224,0,4.476,0.001,6.745,0.001
		c2.27-0.013,4.554,0.128,6.849,0.185c2.295,0.076,4.6,0.135,6.898,0.311c2.299,0.159,4.598,0.317,6.888,0.475
		c2.288,0.176,4.56,0.441,6.818,0.654c4.517,0.413,8.947,0.966,13.227,1.623c4.278,0.654,8.398,1.437,12.256,2.462
		c1.927,0.516,3.793,1.086,5.553,1.805c0.879,0.362,1.734,0.755,2.542,1.229c0.806,0.47,1.583,0.999,2.231,1.706
		c0.643,0.684,1.16,1.663,1.065,2.688c-0.093,1.005-0.615,1.813-1.171,2.427c-1.146,1.233-2.461,2.028-3.7,2.716
		c-2.502,1.348-4.81,2.195-6.713,2.86c-1.906,0.661-3.439,1.066-4.483,1.335c-0.523,0.132-0.927,0.223-1.2,0.277
		c-0.273,0.058-0.418,0.059-0.418,0.059s0.143-0.011,0.412-0.086c0.269-0.072,0.664-0.189,1.176-0.355
		c1.025-0.328,2.513-0.859,4.378-1.596c1.855-0.751,4.108-1.709,6.475-3.14c1.168-0.719,2.398-1.57,3.341-2.697
		c0.461-0.56,0.816-1.215,0.847-1.868c0.036-0.651-0.304-1.288-0.845-1.834c-1.108-1.088-2.739-1.846-4.425-2.475
		c-1.704-0.629-3.53-1.151-5.43-1.604c-3.803-0.908-7.898-1.567-12.144-2.167c-4.246-0.6-8.668-1.034-13.161-1.444
		c-2.247-0.201-4.508-0.453-6.784-0.616c-2.278-0.146-4.564-0.293-6.851-0.44c-2.284-0.187-4.574-0.257-6.854-0.344
		c-2.28-0.068-4.551-0.22-6.806-0.218c-2.255-0.025-4.491-0.049-6.701-0.074c-2.21-0.007-4.392,0.063-6.539,0.09
		c-2.149,0.008-4.256,0.136-6.321,0.218c-2.066,0.081-4.087,0.165-6.048,0.331c-3.93,0.254-7.634,0.622-11.052,0.991
		c-1.705,0.217-3.339,0.425-4.893,0.622c-1.55,0.233-3.02,0.454-4.401,0.662c-1.376,0.246-2.663,0.476-3.854,0.689
		c-1.185,0.245-2.273,0.47-3.256,0.674c-1.957,0.447-3.493,0.812-4.532,1.097C88.952,56.244,88.404,56.42,88.404,56.42z"/>
</g>
<g opacity="0.5">
	
		<path fill="#FFFFFF" stroke="#FFFFFF" stroke-width="2" stroke-linecap="round" stroke-linejoin="round" stroke-miterlimit="10" d="
		M54.604,84.842c-0.239,2.205-1.275,3.687-2.552,3.838c-0.088,0.01-0.113,0.074-0.126,0.207l-0.136,1.405
		c-0.025,0.15-0.062,0.209-0.146,0.188l-0.576-0.139c-0.079-0.019-0.112-0.091-0.09-0.235l0.125-1.347
		c0.012-0.128-0.035-0.199-0.091-0.229c-0.988-0.426-1.404-1.746-1.258-3.474l0.559-6.533c0.18-2.132,1.103-4.097,2.472-4.913
		l0.43-0.257c1.65-0.984,2.612,0.271,2.311,3.057L54.604,84.842z M53.046,75.089l-0.424,0.219c-0.709,0.367-1.324,1.619-1.44,2.86
		l-0.614,6.85c-0.076,0.835,0.109,1.571,0.533,1.954c0.092,0.071,0.162,0.01,0.185-0.184l0.094-0.977
		c0.012-0.153,0.059-0.219,0.143-0.22l0.604-0.007c0.09-0.001,0.115,0.067,0.103,0.227l-0.103,0.997
		c-0.025,0.202,0.038,0.275,0.154,0.213c0.599-0.34,1.018-1.163,1.119-2.128l0.823-7.958C54.38,75.484,53.811,74.693,53.046,75.089z
		"/>
	
		<path fill="#FFFFFF" stroke="#FFFFFF" stroke-width="2" stroke-linecap="round" stroke-linejoin="round" stroke-miterlimit="10" d="
		M61.94,80.181l-3.037,0.579c-0.16,0.03-0.227,0.133-0.272,0.352l-0.994,7.855c-0.021,0.2-0.103,0.276-0.246,0.256l-1.129-0.153
		c-0.13-0.017-0.166-0.104-0.149-0.293l2.141-17.837c0.044-0.233,0.11-0.36,0.265-0.451l5.263-3.078
		c3.894-2.277,6.364-0.693,5.503,4.267C68.549,75.897,65.366,79.529,61.94,80.181z M63.402,70.086l-3.327,1.683
		c-0.173,0.089-0.272,0.233-0.296,0.465l-0.784,6.095c-0.023,0.22,0.023,0.299,0.186,0.254l3.104-0.835
		c1.691-0.456,3.438-2.607,3.841-4.862l0.075-0.417C66.616,70.187,65.189,69.182,63.402,70.086z"/>
</g>
<g>
	<path fill="#BE1E2D" d="M54.382,84.731c-0.239,2.205-1.275,3.687-2.552,3.838c-0.088,0.01-0.113,0.074-0.126,0.207l-0.136,1.405
		c-0.025,0.15-0.062,0.209-0.146,0.188l-0.576-0.139c-0.079-0.019-0.112-0.091-0.09-0.235l0.125-1.347
		c0.012-0.128-0.035-0.199-0.091-0.229c-0.988-0.426-1.404-1.746-1.258-3.474l0.559-6.533c0.18-2.132,1.103-4.097,2.472-4.913
		l0.43-0.257c1.65-0.984,2.612,0.271,2.311,3.057L54.382,84.731z M52.825,74.978l-0.424,0.219c-0.709,0.367-1.324,1.619-1.44,2.86
		l-0.614,6.85c-0.076,0.835,0.109,1.571,0.533,1.954c0.092,0.071,0.162,0.01,0.185-0.184l0.094-0.977
		c0.012-0.153,0.059-0.219,0.143-0.22l0.604-0.007c0.09-0.001,0.115,0.067,0.103,0.227l-0.103,0.997
		c-0.025,0.202,0.038,0.275,0.154,0.213c0.599-0.34,1.018-1.163,1.12-2.128l0.823-7.958C54.159,75.373,53.59,74.582,52.825,74.978z"
		/>
	<path fill="#BE1E2D" d="M61.718,80.07l-3.037,0.579c-0.16,0.03-0.227,0.133-0.272,0.352l-0.994,7.855
		c-0.021,0.2-0.103,0.276-0.246,0.256l-1.129-0.153c-0.13-0.017-0.166-0.104-0.149-0.293l2.141-17.837
		c0.044-0.233,0.11-0.36,0.265-0.451l5.263-3.078c3.894-2.277,6.364-0.693,5.503,4.267C68.327,75.787,65.144,79.418,61.718,80.07z
		 M63.181,69.975l-3.327,1.683c-0.173,0.089-0.272,0.233-0.296,0.465l-0.784,6.095c-0.023,0.22,0.023,0.299,0.186,0.254l3.104-0.835
		c1.691-0.456,3.438-2.607,3.841-4.862l0.075-0.417C66.394,70.076,64.968,69.072,63.181,69.975z"/>
</g>
</svg>
